<?xml version="1.0" encoding="UTF-8"?>
<svg xmlns="http://www.w3.org/2000/svg" xmlns:xlink="http://www.w3.org/1999/xlink" id="svg" width="400" height="400"
    viewBox="0 0 400 400">
    <g id="svgg">
        <path id="path0"
            d="M72.240 9.744 C 55.368 13.417,43.728 27.942,43.759 45.281 C 43.818 77.386,82.511 93.323,105.287 70.623 C 130.767 45.227,107.356 2.099,72.240 9.744 M92.382 17.793 C 104.525 23.552,111.918 37.324,109.589 49.847 C 102.871 85.969,50.418 81.951,50.396 45.313 C 50.382 22.600,72.269 8.255,92.382 17.793 M71.463 25.815 C 70.634 27.157,72.690 28.906,75.096 28.906 L 77.344 28.906 77.344 35.938 L 77.344 42.969 69.922 42.969 L 62.500 42.969 62.500 40.180 C 62.500 37.735,62.283 37.422,60.742 37.641 C 58.838 37.911,57.641 51.272,59.293 53.825 C 60.553 55.771,62.500 54.175,62.500 51.196 L 62.500 48.438 69.922 48.438 L 77.344 48.438 77.344 55.859 L 77.344 63.281 74.655 63.281 C 71.588 63.281,70.516 64.378,71.926 66.077 C 73.693 68.206,87.819 67.302,88.140 65.039 C 88.359 63.498,88.046 63.281,85.601 63.281 L 82.813 63.281 82.813 55.859 L 82.813 48.438 89.844 48.438 L 96.875 48.438 96.887 50.586 C 96.903 53.440,97.992 55.026,99.531 54.435 C 101.834 53.551,101.344 37.311,99.023 37.641 C 97.676 37.832,97.208 38.484,97.021 40.430 L 96.776 42.969 89.794 42.969 L 82.813 42.969 82.813 35.987 L 82.813 29.005 85.352 28.760 C 87.298 28.573,87.949 28.105,88.140 26.758 C 88.416 24.813,72.634 23.921,71.463 25.815 M306.833 82.098 C 292.251 85.535,285.714 98.679,292.260 111.399 C 298.910 124.323,319.600 122.690,323.450 108.938 C 326.856 96.773,310.499 88.221,302.427 97.947 C 299.453 101.531,303.729 104.607,307.530 101.617 C 313.879 96.623,321.174 103.883,315.993 110.040 C 309.311 117.981,298.416 114.630,296.003 103.892 C 292.706 89.214,316.407 81.359,326.784 93.691 C 337.860 106.855,327.208 133.474,309.729 136.308 C 303.173 137.371,303.125 137.396,303.125 139.806 C 303.125 145.735,317.389 142.266,326.229 134.187 C 348.855 113.508,334.712 75.527,306.833 82.098 M64.453 92.722 C 36.223 95.173,28.051 99.768,26.877 113.852 C 25.441 131.070,31.110 141.809,50.587 158.765 C 63.922 170.373,68.883 187.904,65.683 212.109 C 63.492 228.676,61.505 232.454,54.371 233.611 C 51.323 234.105,46.768 235.026,44.250 235.658 C 41.731 236.289,39.582 236.699,39.474 236.567 C 39.366 236.436,37.588 233.867,35.524 230.859 C 27.307 218.886,23.344 215.767,17.697 216.826 C 5.907 219.038,6.923 229.016,22.290 261.958 C 39.338 298.502,42.830 302.094,69.922 310.962 C 76.797 313.212,85.059 316.108,88.281 317.396 C 97.620 321.131,102.314 320.770,121.094 314.871 C 161.799 302.084,167.008 301.980,192.770 313.433 C 199.963 316.631,201.805 317.177,202.749 316.394 C 204.896 314.612,204.136 312.120,200.977 310.585 C 170.519 295.794,159.821 295.636,117.969 309.359 C 101.750 314.676,98.924 314.935,91.135 311.816 C 87.792 310.478,79.543 307.579,72.802 305.374 C 48.547 297.440,45.504 294.917,35.158 274.172 C 30.382 264.595,30.538 264.701,39.136 276.884 C 47.344 288.514,49.783 290.011,70.381 296.061 C 92.069 302.431,98.030 302.981,97.500 298.564 C 97.285 296.767,96.646 296.461,89.844 294.897 C 54.307 286.727,52.494 285.634,36.744 262.891 C 16.790 234.076,13.360 227.292,17.054 223.949 C 20.085 221.206,22.201 222.713,29.113 232.540 L 33.592 238.908 30.859 241.641 C 24.366 248.134,30.253 255.189,44.757 258.295 C 47.855 258.958,50.830 259.638,51.367 259.804 C 52.083 260.026,51.900 260.960,50.685 263.291 C 47.756 268.910,50.304 275.625,56.813 279.439 C 62.320 282.667,69.335 282.748,84.375 279.758 C 99.843 276.682,102.503 276.677,107.900 279.710 C 118.550 285.695,123.718 287.185,125.478 284.779 C 126.969 282.740,125.556 280.679,122.014 279.725 C 120.387 279.287,116.273 277.343,112.873 275.405 C 103.646 270.147,100.355 269.968,83.642 273.817 C 66.833 277.688,55.469 275.423,55.469 268.202 C 55.469 263.931,59.379 262.367,75.781 260.079 C 96.638 257.171,99.609 256.453,109.443 251.954 C 133.616 240.893,145.872 241.063,165.234 252.725 C 174.348 258.214,180.612 261.012,190.234 263.894 C 215.989 271.607,220.533 272.066,219.217 266.822 C 218.855 265.381,218.034 264.860,215.432 264.422 C 213.605 264.114,208.066 262.715,203.125 261.314 C 183.439 255.731,177.634 253.380,167.089 246.717 C 155.209 239.210,141.664 236.095,130.263 238.246 C 125.521 239.141,124.839 239.078,119.821 237.279 C 116.869 236.220,110.938 234.767,106.641 234.050 C 97.748 232.566,97.533 232.397,95.276 225.087 C 90.300 208.978,91.495 181.609,97.705 169.436 C 98.596 167.689,103.354 162.744,109.065 157.629 C 126.567 141.954,131.389 133.314,131.357 117.683 C 131.331 105.010,130.186 102.599,122.454 98.930 C 111.458 93.712,85.298 90.911,64.453 92.722 M108.203 100.771 C 121.191 103.535,126.133 106.375,122.461 108.963 C 109.867 117.841,55.396 118.249,36.914 109.604 C 21.020 102.168,80.276 94.826,108.203 100.771 M43.737 118.356 C 65.949 124.112,106.420 122.715,122.412 115.641 L 125.781 114.150 125.768 117.036 C 125.703 130.826,119.864 140.137,101.121 156.344 C 81.481 173.326,80.224 223.012,98.893 244.355 C 103.735 249.890,102.412 250.493,78.906 253.458 C 62.214 255.564,57.694 255.411,45.658 252.332 C 31.148 248.621,31.549 244.927,46.860 241.262 C 56.931 238.851,57.636 239.659,49.856 244.700 C 45.409 247.582,44.698 250.963,48.448 251.401 C 61.799 252.961,74.807 220.001,72.024 191.663 C 69.884 169.870,67.662 165.656,50.052 150.003 C 38.414 139.657,33.824 131.589,33.011 120.042 L 32.579 113.912 35.672 115.490 C 37.374 116.358,41.003 117.648,43.737 118.356 M109.895 133.063 C 107.957 135.779,104.202 140.009,101.550 142.465 C 96.776 146.884,95.901 149.219,99.017 149.219 C 100.633 149.219,111.286 138.646,114.353 133.998 C 119.197 126.659,115.081 125.795,109.895 133.063 M255.469 135.601 C 234.430 141.102,222.708 158.169,225.655 179.007 C 226.492 184.929,226.453 185.546,225.199 186.245 C 202.256 199.032,204.165 236.629,228.600 253.234 C 260.432 274.865,299.930 259.607,310.968 221.415 C 311.818 218.471,312.189 218.144,315.695 217.245 C 353.046 207.672,371.979 270.234,336.591 286.292 C 328.911 289.776,328.778 289.756,325.585 284.620 C 318.022 272.452,296.404 258.056,294.224 263.736 C 293.233 266.318,293.863 267.325,297.461 268.911 C 340.034 287.682,332.952 346.172,288.108 346.155 C 280.097 346.152,278.628 346.813,279.471 350.039 C 280.437 353.733,296.755 353.136,305.662 349.080 C 310.068 347.074,309.941 346.988,310.995 352.689 C 316.536 382.660,264.377 397.288,239.739 372.673 C 220.747 353.698,227.917 315.051,253.942 296.122 C 259.396 292.155,260.176 290.957,258.437 289.219 C 253.911 284.692,237.506 299.582,230.067 314.968 C 209.739 357.015,234.698 395.446,279.188 390.603 C 307.580 387.513,323.916 367.511,315.700 345.899 C 315.054 344.200,315.358 343.570,318.103 340.922 C 329.122 330.294,334.472 312.261,331.090 297.151 C 330.575 294.847,330.698 294.662,333.043 294.221 C 346.887 291.617,359.156 277.334,360.865 261.829 L 361.328 257.631 365.875 256.227 C 390.081 248.751,399.675 202.018,380.655 184.236 C 377.069 180.884,376.968 180.667,377.431 177.302 C 382.565 139.958,331.152 126.178,313.516 160.171 L 311.484 164.087 309.453 159.973 C 300.584 142.009,275.051 130.481,255.469 135.601 M279.637 142.262 C 298.366 148.187,309.445 165.464,309.647 189.063 C 310.086 240.336,274.312 271.044,237.127 251.312 C 202.574 232.976,210.592 185.938,248.271 185.938 C 282.859 185.938,296.027 230.845,262.656 234.995 C 258.799 235.474,258.169 235.789,257.948 237.348 C 256.496 247.587,280.711 237.451,286.010 225.602 C 297.275 200.413,265.509 172.497,235.834 181.506 L 232.215 182.604 231.733 179.084 C 228.064 152.320,252.372 133.636,279.637 142.262 M355.874 148.364 C 370.336 154.761,376.372 175.011,367.139 186.155 C 356.285 199.255,335.615 191.125,335.771 173.817 C 335.901 159.328,353.660 156.741,357.150 170.703 C 359.304 179.323,364.859 178.782,363.239 170.110 C 359.187 148.418,329.688 151.654,329.688 173.790 C 329.688 196.731,356.489 207.516,371.332 190.548 L 374.731 186.663 376.901 188.833 C 388.385 200.317,386.163 231.847,372.938 245.072 C 367.340 250.670,360.938 252.630,360.938 248.746 C 360.938 228.859,342.843 210.547,323.192 210.547 L 313.961 210.547 314.375 208.203 C 315.447 202.136,315.764 196.974,315.885 183.594 C 316.015 169.183,316.023 169.126,318.427 164.063 C 325.264 149.664,342.489 142.443,355.874 148.364 M254.922 149.875 C 247.609 152.433,240.294 158.684,240.780 161.961 C 241.178 164.647,242.671 164.288,246.036 160.698 C 250.614 155.814,255.995 153.099,262.340 152.471 C 266.885 152.022,267.578 151.746,267.578 150.391 C 267.578 148.197,260.539 147.910,254.922 149.875 M112.774 241.498 L 116.016 242.389 112.620 243.850 C 108.913 245.447,107.407 244.934,103.675 240.803 C 102.132 239.096,104.762 239.296,112.774 241.498 M73.191 262.225 C 72.913 262.504,72.835 263.471,73.018 264.374 C 73.202 265.277,73.572 267.707,73.840 269.774 C 74.589 275.538,77.838 274.980,77.526 269.141 C 77.162 262.322,75.595 259.822,73.191 262.225 M315.348 304.503 C 315.145 304.832,314.568 307.380,314.066 310.167 C 312.262 320.172,305.251 329.373,297.129 332.396 C 292.020 334.298,290.320 337.501,294.420 337.499 C 303.352 337.495,315.651 323.774,318.027 311.164 C 319.131 305.303,317.445 301.111,315.348 304.503 "
            stroke="none" fill="#000000" fill-rule="evenodd"></path>
    </g>
</svg>