<svg version="1.1" xmlns="http://www.w3.org/2000/svg" xmlns:xlink="http://www.w3.org/1999/xlink" width="400" x="0" y="0"
    xml:space="preserve" height="400" viewBox="0 0 400 400">
    <g>
        <path id="path0"
            d="M101.719 27.500 C 99.849 29.369,100.418 371.626,102.292 372.629 C 104.397 373.755,295.603 373.755,297.708 372.629 C 299.582 371.626,300.151 29.369,298.281 27.500 C 296.920 26.138,103.080 26.138,101.719 27.500 M292.969 200.000 L 292.969 366.406 200.000 366.406 L 107.031 366.406 107.031 200.000 L 107.031 33.594 200.000 33.594 L 292.969 33.594 292.969 200.000 M187.014 38.623 C 178.692 42.245,181.143 53.906,190.226 53.906 C 194.408 53.906,196.269 53.099,199.805 49.753 C 202.081 47.598,202.344 47.513,202.344 48.929 C 202.344 53.985,211.479 55.829,215.685 51.623 C 224.586 42.722,210.764 33.126,201.186 41.557 C 198.351 44.053,197.651 44.382,197.631 43.230 C 197.556 38.896,191.963 36.469,187.014 38.623 M191.682 44.521 C 191.292 46.472,191.514 46.965,193.040 47.530 L 194.864 48.204 193.064 49.168 C 190.219 50.691,186.719 48.929,186.719 45.974 C 186.719 44.346,187.218 43.499,188.477 42.993 C 191.603 41.736,192.183 42.013,191.682 44.521 M211.277 42.949 C 213.949 43.965,213.999 47.150,211.370 48.872 C 209.943 49.807,209.102 49.917,208.050 49.305 C 207.275 48.854,207.080 48.474,207.617 48.461 C 209.523 48.415,208.756 44.534,206.836 44.506 C 205.122 44.482,205.116 44.453,206.595 43.335 C 208.388 41.978,208.663 41.955,211.277 42.949 M118.255 44.912 C 116.896 48.454,117.031 48.470,146.268 48.252 L 173.828 48.047 173.828 46.094 L 173.828 44.141 146.268 43.935 C 122.261 43.756,118.650 43.882,118.255 44.912 M226.068 44.912 C 224.708 48.454,224.844 48.470,254.081 48.252 L 281.641 48.047 281.641 46.094 L 281.641 44.141 254.081 43.935 C 230.073 43.756,226.463 43.882,226.068 44.912 M116.005 54.828 C 115.789 55.395,115.703 82.402,115.814 114.844 L 116.016 173.828 117.969 173.828 L 119.922 173.828 119.922 114.063 L 119.922 54.297 118.161 54.047 C 117.192 53.909,116.222 54.261,116.005 54.828 M280.068 54.828 C 279.851 55.395,279.765 82.402,279.876 114.844 L 280.078 173.828 282.031 173.828 L 283.984 173.828 283.984 114.063 L 283.984 54.297 282.223 54.047 C 281.254 53.909,280.285 54.261,280.068 54.828 M146.674 120.272 C 139.331 124.929,139.806 119.656,140.035 193.912 C 140.228 256.875,140.282 258.972,141.703 259.246 C 144.415 259.768,144.507 257.626,144.522 193.750 C 144.539 122.667,144.218 126.818,149.927 123.866 C 153.128 122.211,162.741 122.687,160.134 124.372 C 159.931 124.502,158.462 125.272,156.869 126.082 C 155.277 126.891,152.991 128.970,151.791 130.702 L 149.609 133.850 149.402 202.806 C 149.195 271.247,149.206 271.766,150.762 272.259 C 153.927 273.264,153.906 273.715,153.909 204.055 C 153.912 128.303,153.558 133.086,159.393 130.069 C 164.157 127.605,165.204 128.505,165.461 135.281 L 165.688 141.264 163.017 142.146 C 157.623 143.926,157.478 144.436,157.606 161.179 C 157.668 169.428,158.111 177.922,158.589 180.056 C 161.649 193.711,173.607 206.401,187.638 210.884 C 191.194 212.020,191.942 216.500,191.096 231.605 C 190.059 250.123,188.483 257.028,185.291 257.037 C 168.581 257.081,155.668 268.009,163.667 275.337 C 178.249 288.692,239.063 284.482,239.063 270.117 C 239.063 263.873,226.391 257.067,214.709 257.037 C 208.905 257.022,205.879 212.579,211.590 211.219 C 218.768 209.511,228.829 202.636,233.644 196.150 C 240.911 186.361,242.196 181.582,242.688 162.500 C 243.116 145.957,242.875 145.004,237.666 142.585 L 234.316 141.030 234.541 135.163 C 234.800 128.403,236.257 127.384,241.258 130.470 C 246.285 133.572,246.094 130.634,246.094 204.616 C 246.094 273.713,246.073 273.264,249.242 272.258 C 250.804 271.763,250.813 271.304,250.602 202.805 L 250.391 133.850 248.209 130.702 C 247.009 128.970,244.723 126.891,243.131 126.082 C 241.538 125.272,240.069 124.502,239.866 124.372 C 236.909 122.460,247.407 122.272,250.536 124.180 C 255.287 127.077,255.044 123.623,255.469 194.141 L 255.859 258.984 257.813 258.984 L 259.766 258.984 259.965 194.201 L 260.165 129.418 258.486 125.949 C 254.195 117.085,238.716 115.023,233.403 122.607 C 232.755 123.533,230.650 125.289,228.725 126.509 C 225.208 128.740,221.875 133.922,221.875 137.161 C 221.875 138.619,221.108 138.672,200.098 138.672 L 178.320 138.672 177.403 135.093 C 176.385 131.122,173.384 127.383,169.673 125.464 C 168.331 124.770,166.843 123.473,166.366 122.582 C 163.801 117.788,152.653 116.480,146.674 120.272 M172.623 135.770 C 173.706 139.672,173.675 139.844,171.875 139.844 C 170.518 139.844,170.313 139.323,170.313 135.891 C 170.313 131.402,171.394 131.345,172.623 135.770 M229.688 135.938 C 229.688 139.323,229.479 139.844,228.125 139.844 C 226.266 139.844,226.148 138.442,227.695 134.741 C 229.233 131.058,229.688 131.331,229.688 135.938 M214.453 145.200 C 221.337 145.693,221.489 145.747,221.725 147.780 C 221.931 149.565,221.603 149.938,219.381 150.442 C 216.044 151.199,183.992 151.207,180.664 150.452 C 177.507 149.736,176.954 146.390,179.883 145.724 C 184.194 144.743,203.901 144.445,214.453 145.200 M173.438 148.047 C 173.438 148.698,172.743 149.219,171.875 149.219 C 171.007 149.219,170.313 148.698,170.313 148.047 C 170.313 147.396,171.007 146.875,171.875 146.875 C 172.743 146.875,173.438 147.396,173.438 148.047 M229.688 148.047 C 229.688 148.698,228.993 149.219,228.125 149.219 C 227.257 149.219,226.563 148.698,226.563 148.047 C 226.563 147.396,227.257 146.875,228.125 146.875 C 228.993 146.875,229.688 147.396,229.688 148.047 M174.609 156.344 C 184.969 157.932,217.576 157.721,227.531 156.002 C 231.715 155.279,235.319 154.688,235.538 154.688 C 235.758 154.688,235.938 156.066,235.938 157.752 C 235.938 162.963,227.945 164.453,200.000 164.453 C 171.415 164.453,164.063 163.006,164.063 157.381 C 164.063 154.143,164.164 153.983,165.820 154.605 C 166.787 154.969,170.742 155.751,174.609 156.344 M171.484 169.489 C 188.444 172.454,222.601 171.792,234.570 168.266 C 237.605 167.372,235.445 179.512,231.128 187.611 C 217.873 212.479,179.943 211.379,167.963 185.779 C 164.259 177.865,162.757 167.479,165.430 168.266 C 166.182 168.488,168.906 169.038,171.484 169.489 M113.373 183.305 C 108.568 186.671,108.558 193.276,113.349 198.720 L 116.373 202.155 114.042 202.621 C 106.142 204.201,109.664 217.969,117.969 217.969 C 126.489 217.969,129.033 207.712,122.238 200.753 L 119.426 197.873 121.788 197.400 C 126.919 196.374,127.884 188.701,123.440 184.257 C 120.838 181.655,116.336 181.230,113.373 183.305 M277.115 183.606 C 271.495 188.027,274.074 199.678,280.156 197.344 C 280.902 197.058,279.912 198.534,277.956 200.625 C 270.948 208.117,273.263 217.969,282.031 217.969 C 290.223 217.969,293.428 206.676,286.254 203.088 L 283.837 201.880 286.740 198.609 C 294.645 189.701,286.167 176.486,277.115 183.606 M120.968 188.709 C 122.344 191.728,122.106 192.127,119.207 191.656 C 116.849 191.274,116.506 191.438,116.260 193.073 L 115.981 194.922 114.956 193.093 C 114.141 191.639,114.124 190.799,114.873 188.992 C 116.134 185.947,119.636 185.784,120.968 188.709 M285.013 188.669 C 285.658 190.085,285.670 191.208,285.058 192.770 L 284.214 194.922 283.503 193.068 C 282.907 191.516,282.413 191.291,280.459 191.682 C 277.903 192.193,277.668 191.702,279.032 188.709 C 280.278 185.973,283.774 185.950,285.013 188.669 M121.875 208.960 C 121.875 210.594,119.429 213.281,117.942 213.281 C 115.785 213.281,113.703 209.862,114.758 208.050 C 115.209 207.275,115.588 207.080,115.601 207.617 C 115.648 209.523,119.529 208.756,119.556 206.836 C 119.580 205.122,119.610 205.116,120.728 206.595 C 121.359 207.429,121.875 208.493,121.875 208.960 M282.476 208.594 C 283.521 208.594,284.386 208.154,284.399 207.617 C 284.412 207.080,284.791 207.275,285.242 208.050 C 286.303 209.872,284.210 213.281,282.031 213.281 C 279.473 213.281,277.685 209.755,278.945 207.195 C 279.959 205.134,279.994 205.124,280.282 206.836 C 280.494 208.096,281.115 208.594,282.476 208.594 M202.344 225.216 C 202.344 249.436,205.758 264.393,212.797 271.006 C 217.386 275.317,221.852 270.867,217.497 266.322 C 214.802 263.508,215.879 263.365,223.610 265.509 C 230.810 267.506,233.462 269.261,231.511 270.739 C 221.458 278.351,178.542 278.351,168.489 270.739 C 166.538 269.261,169.190 267.506,176.390 265.509 C 184.121 263.365,185.198 263.508,182.503 266.322 C 179.562 269.391,179.922 272.174,183.301 272.503 C 191.423 273.293,196.727 257.134,197.420 229.492 L 197.845 212.500 200.094 212.500 L 202.344 212.500 202.344 225.216 M116.005 226.703 C 115.789 227.270,115.703 254.277,115.814 286.719 L 116.016 345.703 117.969 345.703 L 119.922 345.703 119.922 285.938 L 119.922 226.172 118.161 225.922 C 117.192 225.784,116.222 226.136,116.005 226.703 M280.068 226.703 C 279.851 227.270,279.765 254.277,279.876 286.719 L 280.078 345.703 282.031 345.703 L 283.984 345.703 283.984 285.938 L 283.984 226.172 282.223 225.922 C 281.254 225.784,280.285 226.136,280.068 226.703 M184.315 348.377 C 175.422 357.270,189.518 367.093,198.840 358.499 L 202.145 355.453 202.609 357.771 C 204.210 365.778,217.969 362.317,217.969 353.906 C 217.969 345.254,207.704 343.140,200.195 350.247 C 198.399 351.947,197.656 352.293,197.656 351.430 C 197.656 346.069,188.678 344.014,184.315 348.377 M192.188 350.781 C 192.969 351.286,193.034 351.543,192.383 351.551 C 190.533 351.573,191.254 355.337,193.164 355.627 L 194.922 355.894 193.093 356.919 C 188.682 359.391,184.364 354.082,188.455 351.216 C 190.480 349.798,190.638 349.780,192.188 350.781 M211.545 351.216 C 214.473 353.267,212.602 357.813,208.830 357.813 C 208.160 357.813,207.999 357.076,208.318 355.479 C 208.709 353.525,208.484 353.029,206.932 352.430 L 205.078 351.715 207.031 350.907 C 209.634 349.830,209.559 349.825,211.545 351.216 M118.255 352.724 C 116.896 356.266,117.031 356.283,146.268 356.065 L 173.828 355.859 173.828 353.906 L 173.828 351.953 146.268 351.748 C 122.261 351.569,118.650 351.695,118.255 352.724 M226.068 352.724 C 224.708 356.266,224.844 356.283,254.081 356.065 L 281.641 355.859 281.641 353.906 L 281.641 351.953 254.081 351.748 C 230.073 351.569,226.463 351.695,226.068 352.724 "
            stroke="none" fill="#000000" fill-rule="evenodd"></path>
    </g>
</svg>