<?xml version="1.0" encoding="UTF-8"?>
<svg xmlns="http://www.w3.org/2000/svg" xmlns:xlink="http://www.w3.org/1999/xlink" id="svg" width="400" height="400"
    viewBox="0 0 400 400">
    <g id="svgg">
        <path id="path0" stroke="none" fill="#000000" fill-rule="evenodd"
            d="M80.377 39.315 C 52.596 49.681,64.236 99.219,94.452 99.219 C 98.279 99.219,101.567 93.832,97.799 93.736 C 67.631 92.969,59.207 44.203,89.270 44.362 C 100.142 44.419,107.226 50.927,105.917 59.654 C 104.262 70.692,93.193 74.700,85.977 66.876 C 80.184 60.596,87.845 52.697,94.389 58.203 C 98.496 61.659,102.398 59.224,99.599 54.953 C 93.535 45.698,77.764 51.055,77.934 62.311 C 78.195 79.591,102.943 82.428,110.249 66.016 C 117.733 49.201,98.929 32.393,80.377 39.315 M281.918 71.847 C 255.825 77.351,233.143 96.451,222.918 121.530 C 212.865 146.188,216.130 179.049,230.535 198.209 C 234.477 203.451,234.520 203.286,228.205 207.038 C 221.786 210.852,207.168 215.736,186.213 221.068 C 181.984 222.144,180.738 225.599,184.112 226.894 C 188.781 228.686,224.123 216.911,235.660 209.720 C 255.394 197.421,266.680 197.134,291.891 208.290 C 302.462 212.969,306.981 214.091,323.047 216.032 C 344.199 218.586,350.374 222.403,343.873 228.903 C 339.338 233.438,333.036 233.687,316.797 229.971 C 301.128 226.386,299.337 226.473,290.234 231.255 C 285.938 233.513,281.016 235.769,279.297 236.269 C 276.561 237.065,276.172 237.466,276.172 239.487 C 276.172 243.738,281.736 242.968,291.438 237.375 C 298.758 233.155,301.063 233.014,315.888 235.885 C 335.298 239.644,343.096 238.981,348.583 233.106 C 352.331 229.094,353.496 223.087,351.171 219.767 C 350.056 218.175,350.215 217.906,354.362 214.363 C 360.581 209.050,367.840 199.652,372.228 191.233 C 378.723 178.770,383.428 175.821,386.004 182.597 C 387.280 185.952,375.199 205.951,356.660 231.175 C 349.627 240.745,337.244 246.265,310.938 251.556 C 303.991 252.953,301.903 255.178,305.071 257.806 C 307.055 259.453,334.584 252.429,347.943 246.868 C 354.694 244.057,356.505 242.294,364.383 230.859 C 371.481 220.556,371.864 220.262,367.950 228.125 C 356.224 251.684,354.511 253.119,326.916 262.513 C 318.056 265.529,309.717 268.560,308.384 269.249 C 304.352 271.334,297.431 270.263,280.569 264.943 C 241.105 252.492,231.885 252.435,206.445 264.480 C 197.389 268.768,195.973 270.287,198.824 272.653 C 200.263 273.847,200.672 273.723,211.447 268.834 C 233.818 258.683,242.313 259.006,281.185 271.483 C 298.768 277.126,304.398 277.703,311.719 274.611 C 314.512 273.432,323.688 270.123,332.111 267.258 C 359.279 258.018,362.729 254.505,378.970 219.559 C 395.352 184.308,396.183 173.438,382.497 173.438 C 380.952 173.438,379.694 173.174,379.703 172.852 C 379.711 172.529,380.226 169.453,380.847 166.016 C 391.048 109.557,338.822 59.844,281.918 71.847 M315.649 77.744 C 375.228 90.220,396.126 164.987,352.019 207.867 C 345.389 214.313,345.196 214.401,340.793 212.989 C 336.961 211.760,331.723 210.912,316.194 209.009 C 306.864 207.866,306.533 207.758,287.891 199.847 C 272.191 193.184,257.142 192.731,243.479 198.508 C 241.396 199.388,239.593 199.996,239.473 199.859 C 223.430 181.587,218.354 150.966,227.355 126.767 C 240.828 90.548,278.064 69.874,315.649 77.744 M297.656 86.328 C 297.656 87.891,298.047 88.281,299.609 88.281 C 301.172 88.281,301.563 87.891,301.563 86.328 C 301.563 84.766,301.172 84.375,299.609 84.375 C 298.047 84.375,297.656 84.766,297.656 86.328 M290.625 85.874 C 290.625 87.787,291.752 89.063,293.443 89.063 C 294.916 89.063,295.313 88.649,295.313 87.109 C 295.313 85.460,294.948 85.156,292.969 85.156 C 291.680 85.156,290.625 85.479,290.625 85.874 M304.380 86.392 C 303.522 88.630,303.879 89.169,306.055 88.919 C 309.021 88.578,309.679 85.156,306.779 85.156 C 305.720 85.156,304.641 85.712,304.380 86.392 M284.375 87.891 C 284.375 89.453,284.766 89.844,286.328 89.844 C 287.891 89.844,288.281 89.453,288.281 87.891 C 288.281 86.328,287.891 85.938,286.328 85.938 C 284.766 85.938,284.375 86.328,284.375 87.891 M310.938 87.891 C 310.938 88.965,311.260 89.844,311.655 89.844 C 312.049 89.844,312.883 90.040,313.508 90.280 C 314.272 90.573,314.767 90.073,315.019 88.756 C 315.259 87.502,314.990 86.642,314.273 86.367 C 311.968 85.482,310.938 85.953,310.938 87.891 M277.900 88.041 C 277.695 88.388,277.816 89.436,278.169 90.369 C 279.042 92.676,282.223 91.970,281.877 89.547 C 281.641 87.896,278.654 86.765,277.900 88.041 M317.708 88.021 C 316.929 88.800,317.080 91.406,317.905 91.406 C 318.299 91.406,319.132 91.602,319.755 91.841 C 321.199 92.395,322.221 88.985,320.869 88.126 C 319.694 87.379,318.394 87.336,317.708 88.021 M273.038 90.019 C 272.183 90.479,271.368 90.949,271.226 91.064 C 271.084 91.179,271.343 91.974,271.801 92.831 C 272.792 94.681,275.788 94.274,275.769 92.292 C 275.747 89.948,274.734 89.106,273.038 90.019 M323.958 90.365 C 322.876 91.447,323.498 93.584,325.010 93.979 C 327.018 94.504,328.895 91.593,327.229 90.538 C 325.952 89.728,324.663 89.660,323.958 90.365 M125.020 91.793 C 111.823 94.790,98.031 105.090,92.582 116.016 L 90.245 120.703 88.071 116.292 C 71.924 83.532,23.149 94.849,24.335 131.081 C 24.545 137.504,24.530 137.562,22.234 138.968 C -3.069 154.467,7.692 209.598,36.691 213.033 C 40.469 213.480,40.625 213.595,40.637 215.929 C 40.706 230.556,51.969 245.561,66.220 250.013 C 70.131 251.234,70.678 251.647,70.504 253.246 C 68.564 271.090,70.601 280.713,78.649 291.731 L 80.884 294.790 77.150 302.278 C 61.338 333.990,80.017 359.984,119.712 361.507 C 166.147 363.288,190.140 327.263,173.375 280.932 C 167.147 263.719,144.491 240.196,139.219 245.469 C 137.265 247.423,138.418 249.136,144.814 253.783 C 162.652 266.743,172.628 287.026,172.652 310.384 C 172.682 339.955,145.883 360.207,113.281 355.250 C 81.652 350.441,68.836 327.448,83.798 302.357 L 85.604 299.329 89.482 301.909 C 100.974 309.557,126.753 311.286,122.166 304.102 C 121.450 302.981,120.387 302.782,116.271 302.998 C 81.159 304.842,61.949 262.171,86.727 237.371 C 91.679 232.414,99.132 227.322,104.349 225.329 C 108.069 223.908,109.016 221.502,106.632 219.524 C 102.562 216.147,80.952 231.650,75.777 241.660 C 73.516 246.032,72.045 246.173,64.621 242.732 C 29.779 226.581,49.801 162.696,86.257 173.698 C 89.184 174.581,89.443 174.941,92.533 182.427 C 104.687 211.868,128.448 225.087,155.859 217.659 C 193.719 207.399,206.025 163.644,176.866 142.966 C 175.292 141.850,175.255 141.500,176.037 135.294 C 179.635 106.763,154.284 85.147,125.020 91.793 M266.292 93.155 C 265.064 93.991,265.749 97.705,267.118 97.631 C 268.964 97.532,270.376 95.329,269.566 93.814 C 268.589 91.989,268.138 91.899,266.292 93.155 M329.826 93.819 C 328.609 95.768,328.638 95.895,330.533 96.909 C 332.048 97.720,334.251 96.308,334.350 94.461 C 334.431 92.961,330.693 92.431,329.826 93.819 M260.265 97.134 C 259.628 97.902,259.670 98.543,260.427 99.577 C 261.951 101.662,265.252 99.879,264.045 97.623 C 263.096 95.850,261.502 95.644,260.265 97.134 M335.359 97.622 C 333.862 100.018,337.258 102.256,338.879 99.942 C 339.746 98.703,339.779 98.129,339.035 97.232 C 337.740 95.673,336.494 95.805,335.359 97.622 M143.126 97.738 C 160.288 101.317,169.859 112.505,169.900 129.033 C 169.926 139.727,170.132 139.344,165.198 137.774 C 131.448 127.038,97.380 167.542,121.477 189.754 C 129.036 196.721,143.042 200.044,143.617 195.007 C 143.916 192.389,142.795 191.435,139.397 191.418 C 119.583 191.319,113.259 166.800,129.167 151.754 C 154.413 127.877,196.463 152.003,185.242 183.927 C 171.968 221.695,119.845 223.717,101.401 187.179 C 77.445 139.724,101.119 88.978,143.126 97.738 M255.347 101.034 C 253.892 102.141,254.754 104.688,256.584 104.688 C 258.457 104.688,259.703 102.508,258.594 101.172 C 257.428 99.767,257.034 99.751,255.347 101.034 M340.762 101.634 C 339.280 104.007,341.853 106.004,343.952 104.110 C 345.234 102.954,345.239 102.776,344.026 101.436 C 342.375 99.612,342.011 99.634,340.762 101.634 M68.834 105.960 C 73.669 108.130,80.008 114.082,82.390 118.689 C 85.847 125.373,86.140 127.251,86.053 142.188 C 86.003 150.909,86.368 158.878,86.975 162.282 L 87.980 167.923 85.982 167.360 C 66.346 161.826,45.392 178.158,41.267 202.212 L 40.324 207.713 37.935 207.258 C 14.910 202.870,5.207 161.489,23.526 145.808 L 26.865 142.951 30.317 146.897 C 45.050 163.739,71.942 153.244,72.149 130.572 C 72.345 109.255,42.514 104.635,38.622 125.380 C 37.185 133.042,42.415 136.246,44.247 128.825 C 47.892 114.060,66.406 114.868,66.406 129.792 C 66.406 152.172,33.828 155.943,30.596 133.938 C 27.315 111.599,47.876 96.555,68.834 105.960 M134.425 105.800 C 132.793 107.766,134.419 108.818,139.316 108.964 C 144.826 109.129,151.171 112.225,155.400 116.813 C 160.153 121.969,163.504 120.959,159.789 115.491 C 154.934 108.346,137.758 101.783,134.425 105.800 M250.000 105.859 C 248.907 107.177,250.128 109.375,251.953 109.375 C 252.492 109.375,253.371 108.848,253.906 108.203 C 255.000 106.886,253.778 104.688,251.953 104.688 C 251.414 104.688,250.535 105.215,250.000 105.859 M345.818 106.123 C 344.604 107.465,344.613 107.644,345.961 108.864 C 347.875 110.596,350.408 108.347,349.125 106.054 C 348.153 104.317,347.439 104.332,345.818 106.123 M297.789 106.151 C 297.218 106.513,294.715 113.100,292.226 120.788 L 287.701 134.766 272.255 135.156 C 250.382 135.709,250.257 136.144,268.198 149.251 L 280.268 158.069 275.681 171.784 C 270.560 187.093,270.427 187.869,272.709 189.091 C 274.595 190.100,273.536 190.718,288.610 179.809 L 299.486 171.938 303.454 174.823 C 305.636 176.410,308.834 178.769,310.561 180.065 C 329.063 193.956,330.323 193.205,323.452 172.387 L 318.771 158.203 320.518 156.831 C 321.479 156.077,326.918 152.067,332.603 147.920 C 348.752 136.142,348.288 135.156,326.598 135.156 L 311.199 135.156 307.848 124.414 C 301.821 105.096,301.208 103.984,297.789 106.151 M246.250 110.312 C 244.877 111.686,245.103 113.114,246.842 114.045 C 248.844 115.116,250.687 112.316,249.177 110.497 C 248.043 109.130,247.468 109.094,246.250 110.312 M350.586 110.474 C 348.910 111.732,348.853 112.786,350.391 114.063 C 351.326 114.838,351.799 114.838,352.734 114.063 C 354.975 112.203,352.900 108.736,350.586 110.474 M242.344 115.781 C 240.997 117.128,241.184 118.236,242.945 119.335 C 244.258 120.155,244.611 120.060,245.343 118.692 C 246.723 116.115,244.331 113.794,242.344 115.781 M354.492 115.942 C 352.816 117.201,352.759 118.255,354.297 119.531 C 355.232 120.307,355.706 120.307,356.641 119.531 C 358.881 117.672,356.806 114.205,354.492 115.942 M304.688 134.540 C 304.688 134.879,302.252 135.156,299.275 135.156 L 293.863 135.156 296.671 126.772 L 299.479 118.387 302.083 126.156 C 303.515 130.429,304.688 134.202,304.688 134.540 M238.750 121.563 C 237.479 124.875,240.628 127.133,242.261 124.081 C 243.190 122.346,243.227 122.424,240.898 121.214 C 239.547 120.511,239.127 120.580,238.750 121.563 M357.113 122.167 C 356.099 123.389,356.750 125.787,358.091 125.769 C 359.995 125.744,361.101 124.402,360.578 122.754 C 359.976 120.857,358.419 120.593,357.113 122.167 M235.982 128.381 C 235.199 130.449,235.444 130.939,237.535 131.486 C 239.073 131.888,240.957 129.399,240.155 128.024 C 239.299 126.556,236.584 126.789,235.982 128.381 M360.034 128.147 C 358.423 129.087,359.032 132.036,360.833 132.019 C 363.084 131.998,363.912 130.982,363.208 129.102 C 362.486 127.171,361.970 127.016,360.034 128.147 M234.148 134.082 C 232.994 135.235,233.661 137.335,235.317 137.769 C 237.389 138.310,237.411 138.293,237.678 135.892 C 237.890 133.993,235.475 132.755,234.148 134.082 M362.305 134.132 C 360.821 134.520,360.574 135.717,361.633 137.388 C 362.563 138.856,365.895 137.768,365.291 136.194 C 365.045 135.553,364.844 134.706,364.844 134.311 C 364.844 133.562,364.562 133.542,362.305 134.132 M232.424 141.399 C 231.794 143.383,232.507 144.531,234.368 144.531 C 236.200 144.531,237.313 141.482,235.826 140.539 C 234.104 139.449,232.951 139.740,232.424 141.399 M362.500 142.578 C 362.500 144.141,362.891 144.531,364.453 144.531 C 366.016 144.531,366.406 144.141,366.406 142.578 C 366.406 141.016,366.016 140.625,364.453 140.625 C 362.891 140.625,362.500 141.016,362.500 142.578 M285.096 142.383 C 285.005 143.852,282.490 150.739,281.960 150.970 C 281.706 151.081,278.409 148.975,274.633 146.289 L 267.769 141.406 276.463 141.406 C 282.929 141.406,285.141 141.656,285.096 142.383 M309.241 148.411 L 311.590 155.416 306.381 159.227 C 303.516 161.323,300.723 163.295,300.175 163.609 C 299.567 163.957,296.972 162.571,293.534 160.063 C 290.430 157.799,287.766 155.861,287.615 155.757 C 287.355 155.579,291.236 143.250,291.948 141.992 C 292.130 141.670,295.567 141.406,299.586 141.406 L 306.892 141.406 309.241 148.411 M330.364 141.772 C 327.669 144.466,316.757 151.436,316.496 150.629 C 316.315 150.068,315.536 147.764,314.766 145.508 L 313.365 141.406 322.047 141.406 C 326.822 141.406,330.565 141.571,330.364 141.772 M232.031 148.828 C 232.031 150.391,232.422 150.781,233.984 150.781 C 235.547 150.781,235.938 150.391,235.938 148.828 C 235.938 147.266,235.547 146.875,233.984 146.875 C 232.422 146.875,232.031 147.266,232.031 148.828 M363.802 147.396 C 362.378 148.820,363.320 151.563,365.234 151.563 C 366.884 151.563,367.188 151.198,367.188 149.219 C 367.188 146.955,365.273 145.925,363.802 147.396 M231.557 155.142 C 231.818 155.822,232.031 156.725,232.031 157.149 C 232.031 158.794,235.549 157.406,235.797 155.664 C 236.010 154.158,235.691 153.906,233.565 153.906 C 231.623 153.906,231.186 154.175,231.557 155.142 M363.281 155.859 C 363.281 157.422,363.672 157.813,365.234 157.813 C 366.797 157.813,367.188 157.422,367.188 155.859 C 367.188 154.297,366.797 153.906,365.234 153.906 C 363.672 153.906,363.281 154.297,363.281 155.859 M232.172 161.914 C 232.425 163.692,236.719 165.092,236.719 163.397 C 236.719 161.417,235.602 160.156,233.846 160.156 C 232.298 160.156,231.971 160.499,232.172 161.914 M362.500 162.026 C 362.500 163.717,363.775 164.844,365.689 164.844 C 366.926 164.844,366.469 161.129,365.170 160.630 C 363.043 159.814,362.500 160.097,362.500 162.026 M293.508 168.209 C 293.290 168.980,280.962 178.075,280.603 177.729 C 280.462 177.594,281.461 173.944,282.823 169.618 L 285.299 161.754 289.493 164.666 C 291.799 166.268,293.606 167.862,293.508 168.209 M316.216 170.072 C 319.266 179.333,319.650 179.088,311.454 173.117 L 304.637 168.151 308.373 165.382 C 313.486 161.592,313.407 161.545,316.216 170.072 M234.570 166.924 C 233.477 167.365,233.241 170.002,234.239 170.619 C 235.874 171.630,238.038 170.171,237.680 168.300 C 237.327 166.455,236.566 166.118,234.570 166.924 M361.458 167.708 C 360.162 169.005,360.994 171.094,362.807 171.094 C 364.498 171.094,365.625 169.819,365.625 167.905 C 365.625 167.083,362.243 166.924,361.458 167.708 M236.523 173.195 C 235.059 173.578,234.881 174.156,235.630 176.108 C 236.602 178.639,240.309 176.916,239.484 174.316 C 239.194 173.403,238.717 172.697,238.424 172.747 C 238.131 172.797,237.275 172.998,236.523 173.195 M359.136 175.048 C 358.832 176.210,359.187 176.835,360.412 177.296 C 362.308 178.009,363.725 176.501,362.981 174.562 C 362.327 172.858,359.619 173.201,359.136 175.048 M238.396 179.600 C 237.386 180.240,238.340 183.594,239.532 183.594 C 241.450 183.594,242.919 181.835,242.170 180.436 C 241.291 178.794,240.088 178.528,238.396 179.600 M356.724 180.142 C 355.969 182.111,356.151 182.705,357.780 183.576 C 360.050 184.791,361.815 181.480,359.715 179.945 C 357.873 178.598,357.302 178.635,356.724 180.142 M241.941 185.500 C 239.730 187.176,241.714 190.026,244.279 188.857 C 246.361 187.909,246.429 187.617,245.006 185.742 C 243.777 184.123,243.759 184.121,241.941 185.500 M353.586 186.427 C 353.095 187.707,354.315 189.844,355.537 189.844 C 356.909 189.844,358.042 186.563,356.917 185.850 C 355.296 184.823,354.123 185.027,353.586 186.427 M245.847 191.004 C 244.627 191.898,244.572 192.273,245.449 193.678 C 246.698 195.678,247.063 195.701,248.713 193.877 C 250.583 191.811,248.116 189.339,245.847 191.004 M349.664 191.936 C 349.380 192.677,349.683 193.768,350.362 194.447 C 352.103 196.188,354.732 193.733,353.158 191.836 C 351.842 190.251,350.294 190.295,349.664 191.936 M345.300 196.499 C 343.616 198.529,346.608 201.265,348.571 199.489 C 349.918 198.269,349.928 198.090,348.713 196.748 C 347.134 195.004,346.575 194.963,345.300 196.499 M340.653 201.138 C 338.926 203.219,341.426 205.759,343.661 204.193 C 345.325 203.027,345.345 202.894,344.069 201.483 C 342.456 199.701,341.893 199.644,340.653 201.138 M335.691 205.031 C 334.373 206.031,335.180 209.446,336.711 209.350 C 338.612 209.232,339.875 207.059,338.926 205.540 C 337.735 203.633,337.569 203.607,335.691 205.031 M325.112 219.670 C 322.870 225.706,324.117 232.520,326.933 229.620 C 328.683 227.818,328.861 218.479,327.151 218.132 C 326.285 217.956,325.539 218.519,325.112 219.670 M83.708 261.190 C 81.862 263.415,84.978 274.884,89.227 281.506 C 94.560 289.817,108.984 297.401,108.984 291.894 C 108.984 290.870,107.805 290.011,104.923 288.936 C 96.517 285.800,88.969 276.050,87.784 266.797 C 87.010 260.755,85.637 258.866,83.708 261.190 ">
        </path>
    </g>
</svg>