<?xml version="1.0" encoding="UTF-8"?>
<svg xmlns="http://www.w3.org/2000/svg" xmlns:xlink="http://www.w3.org/1999/xlink" id="svg" width="400" height="400"
    viewBox="0 0 400 400">
    <g id="svgg">
        <path id="path0"
            d="M101.719 27.500 C 99.849 29.369,100.418 371.626,102.292 372.629 C 104.397 373.755,295.603 373.755,297.708 372.629 C 299.582 371.626,300.151 29.369,298.281 27.500 C 296.920 26.138,103.080 26.138,101.719 27.500 M292.969 200.000 L 292.969 366.406 200.000 366.406 L 107.031 366.406 107.031 200.000 L 107.031 33.594 200.000 33.594 L 292.969 33.594 292.969 200.000 M187.014 38.623 C 178.692 42.245,181.143 53.906,190.226 53.906 C 194.408 53.906,196.269 53.099,199.805 49.753 C 202.081 47.598,202.344 47.513,202.344 48.929 C 202.344 53.985,211.479 55.829,215.685 51.623 C 224.586 42.722,210.764 33.126,201.186 41.557 C 198.351 44.053,197.651 44.382,197.631 43.230 C 197.556 38.896,191.963 36.469,187.014 38.623 M191.682 44.521 C 191.292 46.472,191.514 46.965,193.040 47.530 L 194.864 48.204 193.064 49.168 C 190.219 50.691,186.719 48.929,186.719 45.974 C 186.719 44.346,187.218 43.499,188.477 42.993 C 191.603 41.736,192.183 42.013,191.682 44.521 M211.291 43.094 C 213.895 44.280,213.935 47.192,211.370 48.872 C 209.943 49.807,209.102 49.917,208.050 49.305 C 207.275 48.854,207.080 48.474,207.617 48.461 C 209.523 48.415,208.756 44.534,206.836 44.506 C 205.122 44.482,205.116 44.453,206.595 43.335 C 208.423 41.952,208.747 41.935,211.291 43.094 M118.255 44.912 C 116.896 48.454,117.031 48.470,146.268 48.252 L 173.828 48.047 173.828 46.094 L 173.828 44.141 146.268 43.935 C 122.261 43.756,118.650 43.882,118.255 44.912 M226.068 44.912 C 224.708 48.454,224.844 48.470,254.081 48.252 L 281.641 48.047 281.641 46.094 L 281.641 44.141 254.081 43.935 C 230.073 43.756,226.463 43.882,226.068 44.912 M116.005 54.828 C 115.789 55.395,115.703 82.402,115.814 114.844 L 116.016 173.828 117.969 173.828 L 119.922 173.828 119.922 114.063 L 119.922 54.297 118.161 54.047 C 117.192 53.909,116.222 54.261,116.005 54.828 M280.068 54.828 C 279.851 55.395,279.765 82.402,279.876 114.844 L 280.078 173.828 282.031 173.828 L 283.984 173.828 283.984 114.063 L 283.984 54.297 282.223 54.047 C 281.254 53.909,280.285 54.261,280.068 54.828 M192.969 134.887 C 144.801 141.275,119.555 192.407,144.094 233.876 C 170.271 278.114,237.400 274.613,258.990 227.883 C 280.199 181.979,242.137 128.365,192.969 134.887 M214.601 143.417 C 258.704 156.052,273.215 209.303,241.266 241.269 C 205.578 276.977,144.800 253.672,141.659 203.075 C 139.249 164.253,177.663 132.835,214.601 143.417 M187.891 149.519 C 129.175 165.102,138.897 251.479,199.376 251.553 C 259.086 251.626,271.831 170.306,215.234 150.359 C 210.101 148.550,193.466 148.039,187.891 149.519 M212.054 154.429 C 243.038 162.152,256.932 199.718,238.712 226.506 C 218.907 255.624,173.948 253.032,158.405 221.875 C 139.935 184.850,172.062 144.461,212.054 154.429 M197.927 155.180 C 197.431 155.383,194.989 161.859,192.501 169.571 L 187.976 183.594 173.441 183.594 C 151.385 183.594,151.263 184.344,170.974 198.722 C 176.196 202.531,180.468 205.871,180.466 206.144 C 180.465 206.417,178.549 212.586,176.209 219.852 C 169.436 240.884,171.042 241.234,194.297 223.792 L 199.922 219.573 206.406 224.408 C 222.648 236.517,223.619 237.095,225.788 235.934 C 228.063 234.716,227.783 232.857,223.183 218.602 L 219.021 205.709 230.280 197.581 C 248.205 184.641,247.927 183.594,226.560 183.594 L 211.768 183.594 207.758 170.898 C 202.696 154.873,201.876 153.563,197.927 155.180 M202.579 177.539 L 204.580 183.594 199.863 183.594 C 196.412 183.594,195.245 183.332,195.516 182.617 C 195.719 182.080,196.705 179.091,197.707 175.975 C 199.808 169.436,199.912 169.469,202.579 177.539 M113.373 183.305 C 108.568 186.671,108.558 193.276,113.349 198.720 L 116.373 202.155 114.042 202.621 C 106.142 204.201,109.664 217.969,117.969 217.969 C 126.489 217.969,129.033 207.712,122.238 200.753 L 119.426 197.873 121.788 197.400 C 126.919 196.374,127.884 188.701,123.440 184.257 C 120.838 181.655,116.336 181.230,113.373 183.305 M277.115 183.606 C 271.495 188.027,274.074 199.678,280.156 197.344 C 280.902 197.058,279.912 198.534,277.956 200.625 C 270.948 208.117,273.263 217.969,282.031 217.969 C 290.223 217.969,293.428 206.676,286.254 203.088 L 283.837 201.880 286.740 198.609 C 294.645 189.701,286.167 176.486,277.115 183.606 M120.968 188.709 C 122.344 191.728,122.106 192.127,119.207 191.656 C 116.849 191.274,116.506 191.438,116.260 193.073 L 115.981 194.922 114.956 193.093 C 114.141 191.639,114.124 190.799,114.873 188.992 C 116.134 185.947,119.636 185.784,120.968 188.709 M285.013 188.669 C 285.658 190.085,285.670 191.208,285.058 192.770 L 284.214 194.922 283.503 193.068 C 282.907 191.516,282.413 191.291,280.459 191.682 C 277.903 192.193,277.668 191.702,279.032 188.709 C 280.278 185.973,283.774 185.950,285.013 188.669 M185.938 190.095 C 185.938 190.523,183.381 198.030,183.134 198.328 C 183.006 198.483,180.200 196.637,176.899 194.227 L 170.898 189.844 178.418 189.844 C 182.554 189.844,185.938 189.957,185.938 190.095 M228.125 190.138 C 228.125 190.475,217.311 198.438,216.854 198.438 C 216.511 198.438,214.063 191.463,214.063 190.486 C 214.063 190.133,217.227 189.844,221.094 189.844 C 224.961 189.844,228.125 189.976,228.125 190.138 M208.559 196.372 C 210.764 203.406,210.885 203.060,204.727 207.340 L 199.688 210.841 195.742 208.027 C 188.763 203.048,188.985 203.596,191.134 196.680 L 193.016 190.625 199.886 190.625 L 206.756 190.625 208.559 196.372 M121.875 208.960 C 121.875 212.741,117.191 214.423,115.185 211.362 C 113.568 208.895,114.177 207.985,117.153 208.422 C 119.226 208.726,119.534 208.534,119.556 206.925 C 119.580 205.133,119.615 205.123,120.728 206.595 C 121.359 207.429,121.875 208.493,121.875 208.960 M282.476 208.594 C 283.521 208.594,284.386 208.154,284.399 207.617 C 284.412 207.080,284.791 207.275,285.242 208.050 C 286.303 209.872,284.210 213.281,282.031 213.281 C 279.473 213.281,277.685 209.755,278.945 207.195 C 279.959 205.134,279.994 205.124,280.282 206.836 C 280.494 208.096,281.115 208.594,282.476 208.594 M193.178 215.636 C 190.423 217.966,182.813 223.321,182.813 222.929 C 182.813 222.213,186.038 211.439,186.465 210.731 C 186.662 210.403,188.389 211.258,190.301 212.632 C 192.213 214.005,193.508 215.357,193.178 215.636 M215.251 216.456 C 217.841 224.232,217.972 224.141,211.237 219.260 L 205.676 215.232 209.283 212.699 C 211.267 211.306,212.950 210.164,213.022 210.161 C 213.094 210.158,214.097 212.991,215.251 216.456 M116.005 226.703 C 115.789 227.270,115.703 254.277,115.814 286.719 L 116.016 345.703 117.969 345.703 L 119.922 345.703 119.922 285.938 L 119.922 226.172 118.161 225.922 C 117.192 225.784,116.222 226.136,116.005 226.703 M280.068 226.703 C 279.851 227.270,279.765 254.277,279.876 286.719 L 280.078 345.703 282.031 345.703 L 283.984 345.703 283.984 285.938 L 283.984 226.172 282.223 225.922 C 281.254 225.784,280.285 226.136,280.068 226.703 M184.315 348.377 C 175.422 357.270,189.518 367.093,198.840 358.499 L 202.145 355.453 202.609 357.771 C 204.210 365.778,217.969 362.317,217.969 353.906 C 217.969 345.254,207.704 343.140,200.195 350.247 C 198.399 351.947,197.656 352.293,197.656 351.430 C 197.656 346.069,188.678 344.014,184.315 348.377 M192.188 350.781 C 192.969 351.286,193.034 351.543,192.383 351.551 C 190.533 351.573,191.254 355.337,193.164 355.627 L 194.922 355.894 193.093 356.919 C 188.682 359.391,184.364 354.082,188.455 351.216 C 190.480 349.798,190.638 349.780,192.188 350.781 M211.545 351.216 C 214.473 353.267,212.602 357.813,208.830 357.813 C 208.160 357.813,207.999 357.076,208.318 355.479 C 208.709 353.525,208.484 353.029,206.932 352.430 L 205.078 351.715 207.031 350.907 C 209.634 349.830,209.559 349.825,211.545 351.216 M118.255 352.724 C 116.896 356.266,117.031 356.283,146.268 356.065 L 173.828 355.859 173.828 353.906 L 173.828 351.953 146.268 351.748 C 122.261 351.569,118.650 351.695,118.255 352.724 M226.068 352.724 C 224.708 356.266,224.844 356.283,254.081 356.065 L 281.641 355.859 281.641 353.906 L 281.641 351.953 254.081 351.748 C 230.073 351.569,226.463 351.695,226.068 352.724 "
            stroke="none" fill="#000000" fill-rule="evenodd"></path>
    </g>
</svg>