<svg id="svg" xmlns="http://www.w3.org/2000/svg" xmlns:xlink="http://www.w3.org/1999/xlink" width="400" height="400"
    viewBox="0 0 400 400">
    <g id="svgg">
        <path id="path0"
            d="M47.852 22.481 C 44.494 25.067,44.531 23.055,44.531 199.702 C 44.531 379.822,44.433 373.908,47.468 376.942 L 49.432 378.906 200.000 378.906 L 350.568 378.906 352.532 376.942 C 355.567 373.908,355.469 379.820,355.464 199.707 C 355.460 21.596,355.521 24.675,351.966 22.346 C 348.901 20.338,50.464 20.470,47.852 22.481 M346.875 200.000 L 346.875 371.094 200.000 371.094 L 53.125 371.094 53.125 200.000 L 53.125 28.906 200.000 28.906 L 346.875 28.906 346.875 200.000 M71.250 47.031 C 69.886 48.395,69.886 351.605,71.250 352.969 C 72.613 354.332,327.387 354.332,328.750 352.969 C 330.114 351.605,330.114 48.395,328.750 47.031 C 327.387 45.668,72.613 45.668,71.250 47.031 M115.625 54.889 C 115.625 55.000,107.363 63.347,97.266 73.438 L 78.906 91.784 78.906 73.236 L 78.906 54.688 97.266 54.688 C 107.363 54.688,115.625 54.778,115.625 54.889 M296.285 79.488 L 321.094 104.288 321.094 199.991 L 321.094 295.694 296.294 320.503 L 271.494 345.313 200.009 345.312 L 128.525 345.312 103.715 320.512 L 78.906 295.712 78.906 200.009 L 78.906 104.306 103.706 79.497 L 128.506 54.688 199.991 54.688 L 271.475 54.688 296.285 79.488 M321.094 73.047 C 321.094 83.145,321.003 91.406,320.892 91.406 C 320.781 91.406,312.435 83.145,302.344 73.047 L 283.997 54.688 302.545 54.688 L 321.094 54.688 321.094 73.047 M134.766 68.723 C 133.906 69.091,123.975 78.668,112.695 90.004 L 92.188 110.615 92.188 200.001 L 92.187 289.386 113.067 310.318 L 133.946 331.250 200.000 331.250 L 266.054 331.250 286.933 310.318 L 307.812 289.386 307.813 199.996 L 307.813 110.606 286.731 89.483 L 265.649 68.359 200.989 68.207 C 165.425 68.123,135.625 68.355,134.766 68.723 M280.268 95.502 L 299.219 114.441 299.219 199.988 L 299.219 285.535 280.279 304.486 L 261.340 323.437 200.012 323.438 L 138.684 323.438 119.732 304.498 L 100.781 285.559 100.781 200.012 L 100.781 114.465 119.721 95.514 L 138.660 76.563 199.988 76.563 L 261.316 76.562 280.268 95.502 M136.541 88.803 C 133.319 93.519,131.019 95.819,126.303 99.041 C 120.930 102.712,121.260 105.336,127.659 109.814 C 130.338 111.689,133.624 114.975,135.499 117.654 C 140.267 124.467,142.522 124.490,146.984 117.770 C 149.335 114.230,151.730 111.835,155.270 109.484 C 161.990 105.022,161.967 102.767,155.154 97.999 C 152.475 96.124,149.189 92.838,147.314 90.159 C 142.836 83.760,140.212 83.430,136.541 88.803 M253.729 88.803 C 250.514 93.508,248.205 95.820,243.538 99.007 C 237.982 102.802,238.264 105.191,244.777 109.515 C 248.269 111.834,250.675 114.244,253.016 117.770 C 257.478 124.490,259.733 124.467,264.501 117.654 C 266.371 114.983,269.670 111.681,272.341 109.808 C 276.438 106.935,276.953 106.275,276.953 103.906 C 276.953 101.537,276.438 100.877,272.341 98.005 C 269.670 96.132,266.371 92.830,264.501 90.159 C 260.023 83.760,257.399 83.430,253.729 88.803 M142.923 99.523 C 143.472 100.550,144.762 101.840,145.789 102.390 C 147.599 103.358,148.312 104.688,147.022 104.688 C 146.205 104.688,143.261 107.428,142.371 109.019 C 141.796 110.047,141.156 109.722,138.466 107.032 L 135.248 103.814 138.132 100.800 C 141.596 97.180,141.660 97.163,142.923 99.523 M261.673 100.735 L 264.752 103.814 261.534 107.032 C 258.844 109.722,258.204 110.047,257.629 109.019 C 256.739 107.428,253.795 104.688,252.978 104.688 C 251.688 104.688,252.401 103.358,254.211 102.390 C 255.238 101.840,256.528 100.550,257.077 99.523 C 258.333 97.178,258.038 97.100,261.673 100.735 M189.063 112.592 C 129.987 119.351,94.820 184.047,120.766 238.238 C 152.285 304.070,247.347 304.331,279.006 238.672 C 309.461 175.511,258.876 104.604,189.063 112.592 M190.390 130.557 L 187.062 140.021 180.836 142.131 C 171.262 145.375,165.370 148.848,158.378 155.367 L 154.647 158.846 144.583 156.981 L 134.519 155.117 136.160 152.754 C 146.986 137.162,174.310 121.350,190.804 121.132 L 193.717 121.094 190.390 130.557 M219.006 122.993 C 236.144 127.341,254.787 139.715,263.840 152.754 L 265.481 155.117 255.417 156.981 L 245.353 158.846 241.622 155.367 C 234.630 148.848,228.738 145.375,219.164 142.131 L 212.938 140.021 209.610 130.557 L 206.283 121.094 208.901 121.094 C 210.340 121.094,214.888 121.948,219.006 122.993 M201.495 133.675 C 202.023 135.439,202.644 137.372,202.874 137.972 C 203.191 138.799,202.496 139.063,200.000 139.063 C 197.504 139.063,196.809 138.799,197.126 137.972 C 197.356 137.372,197.977 135.439,198.505 133.675 C 199.712 129.646,200.288 129.646,201.495 133.675 M210.335 159.375 C 215.657 174.849,213.731 173.787,230.661 170.585 L 241.612 168.513 243.042 170.390 C 243.828 171.421,245.340 173.852,246.403 175.792 L 248.334 179.318 240.204 188.682 C 234.550 195.195,232.074 198.642,232.074 200.000 C 232.074 201.358,234.550 204.805,240.204 211.318 L 248.334 220.682 246.403 224.208 C 245.340 226.148,243.828 228.579,243.042 229.610 L 241.612 231.487 230.661 229.415 C 213.731 226.213,215.657 225.151,210.333 240.625 L 206.435 251.953 200.000 251.953 L 193.565 251.953 189.667 240.625 C 184.343 225.151,186.269 226.213,169.339 229.415 L 158.388 231.487 156.958 229.610 C 156.172 228.579,154.660 226.148,153.597 224.208 L 151.666 220.682 159.796 211.318 C 165.450 204.805,167.926 201.358,167.926 200.000 C 167.926 198.642,165.450 195.195,159.796 188.682 L 151.666 179.318 153.597 175.792 C 154.660 173.852,156.172 171.421,156.958 170.390 L 158.388 168.513 169.339 170.585 C 186.209 173.776,184.372 174.731,189.383 160.156 C 191.377 154.355,193.170 149.156,193.367 148.601 C 193.629 147.863,195.430 147.654,200.083 147.820 L 206.440 148.047 210.335 159.375 M181.360 156.606 C 180.192 159.810,179.027 162.640,178.772 162.895 C 178.239 163.428,168.125 161.822,166.492 160.946 C 164.709 159.988,179.161 150.862,182.562 150.798 C 183.159 150.787,182.736 152.830,181.360 156.606 M221.640 152.305 C 227.277 154.864,234.733 160.289,233.508 160.940 C 231.723 161.888,221.846 163.513,221.284 162.951 C 220.998 162.665,219.808 159.810,218.640 156.606 C 216.306 150.204,216.476 149.961,221.640 152.305 M146.135 166.087 C 147.447 166.341,148.402 166.780,148.259 167.063 C 148.115 167.346,147.512 168.545,146.920 169.727 C 145.560 172.439,145.544 172.434,141.797 168.182 L 138.672 164.636 141.211 165.131 C 142.607 165.402,144.823 165.833,146.135 166.087 M258.109 168.286 C 254.427 172.467,254.616 172.426,252.905 169.420 C 251.252 166.517,251.085 166.754,255.469 165.787 C 261.141 164.535,261.289 164.675,258.109 168.286 M138.078 177.144 L 141.589 181.242 140.326 187.512 C 139.631 190.960,139.063 196.580,139.063 200.000 C 139.063 203.420,139.631 209.040,140.326 212.488 L 141.589 218.758 138.078 222.856 C 136.146 225.109,133.148 228.535,131.415 230.469 L 128.263 233.984 126.555 230.078 C 118.823 212.394,118.823 187.606,126.555 169.922 L 128.263 166.016 131.415 169.531 C 133.148 171.465,136.146 174.891,138.078 177.144 M274.217 171.846 C 281.229 189.740,280.921 212.979,273.445 230.078 L 271.737 233.984 268.585 230.469 C 266.852 228.535,263.854 225.109,261.922 222.856 L 258.411 218.758 259.674 212.488 C 261.284 204.496,261.282 195.491,259.667 187.476 C 258.438 181.378,258.446 181.114,259.915 179.452 C 260.751 178.507,263.668 175.175,266.398 172.048 C 271.872 165.777,271.839 165.777,274.217 171.846 M153.486 194.922 L 157.945 200.000 153.399 205.178 C 149.121 210.051,148.823 210.246,148.333 208.498 C 147.324 204.900,147.726 189.844,148.830 189.844 C 148.939 189.844,151.034 192.129,153.486 194.922 M252.188 200.000 C 252.188 211.055,251.953 211.273,246.601 205.178 L 242.055 200.000 246.601 194.822 C 251.953 188.727,252.188 188.945,252.188 200.000 M146.920 230.273 C 147.512 231.455,148.115 232.654,148.259 232.937 C 148.402 233.220,147.447 233.659,146.135 233.913 C 144.823 234.167,142.607 234.598,141.211 234.869 L 138.672 235.364 141.797 231.818 C 145.544 227.566,145.560 227.561,146.920 230.273 M257.724 231.441 C 261.446 235.431,261.455 235.415,256.169 234.299 C 250.980 233.204,251.242 233.502,252.905 230.580 C 254.603 227.598,254.047 227.498,257.724 231.441 M181.281 243.164 C 182.702 247.071,183.156 249.213,182.562 249.202 C 179.865 249.151,164.997 240.211,165.979 239.230 C 166.631 238.578,175.314 236.841,177.235 236.978 C 178.790 237.089,179.424 238.058,181.281 243.164 M228.753 237.830 C 231.462 238.411,233.839 239.048,234.037 239.245 C 234.567 239.775,225.617 245.891,221.726 247.657 C 216.465 250.044,216.257 249.811,218.424 243.945 C 219.495 241.045,220.522 238.232,220.708 237.695 C 221.129 236.475,222.548 236.499,228.753 237.830 M157.471 243.830 C 162.910 249.574,171.412 254.678,180.859 257.872 L 187.109 259.985 190.406 269.445 L 193.703 278.906 191.092 278.906 C 175.497 278.906,151.454 265.699,138.515 250.024 L 134.343 244.970 142.758 243.281 C 154.280 240.968,154.779 240.987,157.471 243.830 M256.845 243.242 L 265.644 244.986 261.478 250.032 C 248.543 265.702,224.500 278.906,208.901 278.906 L 206.283 278.906 209.610 269.443 L 212.938 259.979 219.164 257.869 C 228.597 254.672,237.100 249.563,242.529 243.830 C 245.223 240.985,245.413 240.977,256.845 243.242 M202.874 262.028 C 202.644 262.628,202.023 264.561,201.495 266.325 C 200.288 270.354,199.712 270.354,198.505 266.325 C 197.977 264.561,197.356 262.628,197.126 262.028 C 196.809 261.201,197.504 260.938,200.000 260.938 C 202.496 260.938,203.191 261.201,202.874 262.028 M136.507 281.038 C 133.320 285.705,131.008 288.014,126.303 291.229 C 120.930 294.899,121.260 297.523,127.659 302.001 C 130.330 303.871,133.632 307.170,135.505 309.841 C 138.377 313.938,139.037 314.453,141.406 314.453 C 143.775 314.453,144.435 313.938,147.308 309.841 C 149.175 307.178,152.491 303.862,155.154 301.995 C 161.796 297.337,161.763 294.663,155.006 290.252 C 151.666 288.071,149.276 285.683,146.993 282.244 C 142.693 275.766,140.296 275.491,136.507 281.038 M253.016 282.230 C 250.665 285.770,248.270 288.165,244.730 290.516 C 238.010 294.978,238.033 297.233,244.846 302.001 C 247.517 303.871,250.819 307.170,252.692 309.841 C 255.565 313.938,256.225 314.453,258.594 314.453 C 260.963 314.453,261.623 313.938,264.495 309.841 C 266.362 307.178,269.678 303.862,272.341 301.995 C 276.438 299.123,276.953 298.463,276.953 296.094 C 276.953 293.725,276.438 293.065,272.341 290.192 C 269.670 288.319,266.371 285.017,264.501 282.346 C 259.733 275.533,257.478 275.510,253.016 282.230 M142.923 291.711 C 143.472 292.738,144.762 294.028,145.789 294.577 C 147.599 295.546,148.312 296.875,147.022 296.875 C 146.191 296.875,143.256 299.626,142.338 301.265 C 141.717 302.376,141.175 302.112,138.427 299.364 L 135.236 296.174 138.126 293.113 C 141.636 289.395,141.677 289.383,142.923 291.711 M261.581 293.015 L 264.752 296.186 261.567 299.370 C 258.824 302.113,258.283 302.376,257.662 301.265 C 256.744 299.626,253.809 296.875,252.978 296.875 C 251.688 296.875,252.401 295.546,254.211 294.577 C 255.238 294.028,256.528 292.738,257.077 291.711 C 258.310 289.407,257.835 289.269,261.581 293.015 M97.656 326.953 L 116.003 345.313 97.455 345.313 L 78.906 345.313 78.906 326.953 C 78.906 316.855,78.997 308.594,79.108 308.594 C 79.219 308.594,87.565 316.855,97.656 326.953 M321.094 326.953 L 321.094 345.313 302.545 345.313 L 283.997 345.313 302.344 326.953 C 312.435 316.855,320.781 308.594,320.892 308.594 C 321.003 308.594,321.094 316.855,321.094 326.953 "
            stroke="none" fill="#000000" fill-rule="evenodd"></path>
    </g>
</svg>
