<svg id="svg" xmlns="http://www.w3.org/2000/svg" xmlns:xlink="http://www.w3.org/1999/xlink" width="400" height="400"
    viewBox="0 0 400 400">
    <g id="svgg">
        <path id="path0"
            d="M93.157 1.206 C 92.210 1.869,89.969 4.923,88.177 7.991 C 84.177 14.840,79.781 19.212,73.562 22.527 C 62.586 28.377,62.426 35.828,73.147 41.824 C 80.426 45.895,83.966 49.363,88.028 56.406 C 94.661 67.906,101.362 68.310,107.367 57.572 C 111.486 50.207,115.169 46.399,121.966 42.478 C 133.735 35.690,133.913 28.593,122.467 22.492 C 116.354 19.234,111.235 14.115,107.976 8.002 C 103.917 0.386,98.122 -2.272,93.157 1.206 M291.137 6.897 C 289.212 9.024,289.358 16.505,291.359 18.316 C 297.517 23.890,306.053 13.289,300.420 7.063 C 298.512 4.955,292.984 4.856,291.137 6.897 M109.322 29.196 C 113.681 32.405,113.856 32.656,112.253 33.389 C 109.508 34.643,102.659 41.153,100.237 44.809 L 98.004 48.180 96.072 45.097 C 93.932 41.682,86.584 34.636,83.874 33.401 C 82.226 32.650,82.376 32.432,86.785 29.186 C 89.342 27.304,92.919 23.735,94.735 21.256 L 98.035 16.748 101.360 21.266 C 103.189 23.750,106.772 27.319,109.322 29.196 M189.041 18.185 C 175.725 22.725,168.476 33.047,167.431 48.957 C 167.166 52.996,166.739 56.187,166.482 56.049 C 146.507 45.290,126.750 50.405,117.761 68.663 L 115.234 73.793 115.019 128.787 L 114.803 183.781 112.284 183.237 C 79.798 176.225,50.529 183.111,27.622 203.156 C 14.268 214.842,18.679 226.381,36.556 226.528 C 59.896 226.721,83.827 242.750,94.158 265.111 C 99.076 275.755,99.995 281.420,100.766 305.859 C 101.529 330.058,102.448 336.042,107.234 347.962 C 117.369 373.202,136.454 389.746,163.942 397.118 L 173.047 399.561 200.000 399.561 L 226.953 399.561 236.058 397.118 C 277.770 385.930,299.219 355.351,299.219 307.068 C 299.219 279.542,302.593 266.546,313.425 252.344 C 317.520 246.976,317.819 243.713,314.482 240.842 C 310.179 237.141,306.916 238.988,300.365 248.833 C 290.003 264.407,287.612 274.251,286.705 305.078 C 285.442 348.001,273.279 368.966,242.168 381.841 C 221.735 390.297,178.265 390.297,157.832 381.841 C 126.630 368.928,114.513 347.963,113.238 304.688 C 112.434 277.371,111.275 271.052,104.587 257.508 C 92.543 233.115,68.202 216.633,40.794 214.311 L 35.103 213.829 36.888 211.919 C 37.869 210.869,41.502 208.123,44.962 205.817 C 86.209 178.327,144.705 196.980,162.944 243.440 C 168.108 256.593,167.114 256.250,200.000 256.250 C 232.594 256.250,232.147 256.396,236.658 244.304 C 254.098 197.555,313.539 178.160,354.897 205.723 C 358.434 208.081,362.131 210.869,363.112 211.919 L 364.897 213.829 359.206 214.311 C 342.434 215.732,325.874 222.626,325.806 228.215 C 325.729 234.547,330.512 235.678,340.528 231.697 C 348.192 228.650,357.379 226.578,363.444 226.528 C 381.321 226.381,385.732 214.842,372.378 203.156 C 349.464 183.105,320.213 176.226,287.695 183.241 L 285.156 183.789 285.156 152.498 L 285.156 121.207 283.098 119.588 C 279.645 116.872,275.666 117.540,273.799 121.150 C 272.850 122.986,272.656 128.888,272.653 156.016 L 272.650 188.672 266.989 191.597 C 256.531 197.001,245.397 206.552,237.754 216.675 C 235.756 219.320,233.820 221.825,233.452 222.242 C 233.078 222.665,232.874 190.673,232.992 149.977 L 233.203 76.953 234.904 73.775 C 241.581 61.301,258.082 59.135,267.409 69.508 C 271.798 74.390,272.656 77.514,272.656 88.606 C 272.656 102.200,276.398 106.776,283.162 101.455 L 285.285 99.786 285.025 86.786 C 284.393 55.128,261.069 41.209,233.518 56.049 C 233.261 56.187,232.834 52.996,232.569 48.957 C 230.987 24.869,210.961 10.712,189.041 18.185 M270.917 27.148 C 266.224 32.492,270.559 39.197,277.943 38.015 C 283.183 37.175,285.588 30.900,282.031 27.344 C 279.936 25.249,272.696 25.122,270.917 27.148 M309.375 27.344 C 305.819 30.900,308.223 37.175,313.464 38.015 C 320.565 39.151,325.121 33.031,321.037 27.840 C 318.903 25.126,311.891 24.828,309.375 27.344 M206.550 29.866 C 208.515 30.453,211.332 32.352,213.794 34.749 C 220.795 41.568,220.313 33.366,220.313 145.454 L 220.313 243.750 200.000 243.750 L 179.688 243.750 179.688 145.454 C 179.688 33.359,179.203 41.573,186.212 34.738 C 191.905 29.186,198.767 27.542,206.550 29.866 M291.554 45.343 C 289.183 47.551,289.054 56.074,291.359 58.160 C 295.120 61.564,301.068 59.148,301.962 53.853 C 303.299 45.939,296.702 40.546,291.554 45.343 M195.343 48.585 C 190.474 53.811,194.011 70.313,200.000 70.313 C 206.143 70.313,209.596 53.415,204.442 48.574 C 201.996 46.276,197.488 46.282,195.343 48.585 M155.469 64.567 C 158.975 66.025,162.958 69.853,165.108 73.828 L 166.797 76.953 167.008 149.977 C 167.126 190.673,166.922 222.665,166.548 222.242 C 166.180 221.825,164.244 219.320,162.246 216.675 C 154.603 206.552,143.469 197.001,133.011 191.597 L 127.350 188.672 127.347 134.075 C 127.343 73.962,127.220 75.573,132.258 69.849 C 138.329 62.953,146.898 61.003,155.469 64.567 M143.208 82.356 C 137.591 87.191,140.708 104.219,147.209 104.219 C 152.284 104.219,153.125 102.555,153.125 92.514 C 153.125 81.005,149.313 77.100,143.208 82.356 M248.933 82.088 C 246.080 84.332,245.728 100.282,248.476 102.770 C 253.675 107.474,258.733 103.473,259.215 94.274 C 259.835 82.460,255.298 77.082,248.933 82.088 M195.668 86.293 C 193.877 88.084,193.750 88.749,193.750 96.362 C 193.750 106.322,194.727 108.168,200.000 108.168 C 205.273 108.168,206.250 106.322,206.250 96.362 C 206.250 87.039,204.861 84.375,200.000 84.375 C 198.478 84.375,196.876 85.084,195.668 86.293 M61.184 89.038 C 57.534 90.572,56.541 97.392,59.432 101.067 C 63.324 106.014,70.313 102.557,70.313 95.684 C 70.313 90.254,65.913 87.051,61.184 89.038 M321.725 91.829 C 320.542 92.472,318.507 95.061,317.076 97.747 C 313.464 104.523,308.511 109.687,302.061 113.399 C 290.303 120.167,290.268 126.668,301.953 133.431 C 308.660 137.313,312.869 141.633,317.086 148.962 C 322.809 158.908,329.526 158.921,335.237 148.998 C 339.475 141.633,343.676 137.318,350.391 133.431 C 362.107 126.650,362.011 119.620,350.117 113.280 C 344.334 110.199,338.849 104.467,335.288 97.786 C 331.688 91.030,326.994 88.969,321.725 91.829 M333.555 116.488 C 336.369 119.326,339.375 122.051,340.234 122.543 L 341.797 123.438 340.234 124.360 C 337.546 125.947,329.718 133.751,327.957 136.599 L 326.275 139.321 325.091 137.434 C 323.566 135.005,314.149 125.500,312.109 124.332 L 310.547 123.438 312.109 122.515 C 314.798 120.928,322.626 113.124,324.386 110.276 L 326.069 107.554 327.253 109.441 C 327.904 110.479,330.740 113.650,333.555 116.488 M39.063 110.938 C 34.770 115.230,38.119 121.094,44.865 121.094 C 49.517 121.094,52.344 118.879,52.344 115.234 C 52.344 109.929,43.071 106.929,39.063 110.938 M77.400 111.433 C 73.673 116.172,76.659 121.094,83.260 121.094 C 88.445 121.094,90.625 119.359,90.625 115.234 C 90.625 109.358,81.171 106.641,77.400 111.433 M143.012 120.269 C 139.766 123.515,139.719 138.151,142.947 140.764 C 149.082 145.732,153.125 141.643,153.125 130.469 C 153.125 122.917,152.936 121.686,151.563 120.313 C 149.513 118.263,145.041 118.240,143.012 120.269 M248.438 120.313 C 247.064 121.686,246.875 122.917,246.875 130.469 C 246.875 140.326,247.792 142.188,252.648 142.188 C 257.998 142.188,258.984 140.364,258.984 130.469 C 258.984 122.235,258.879 121.652,257.140 120.243 C 254.709 118.275,250.441 118.309,248.438 120.313 M195.369 124.715 C 190.590 130.790,193.905 146.094,200.000 146.094 C 204.967 146.094,206.250 143.688,206.250 134.375 C 206.250 125.062,204.967 122.656,200.000 122.656 C 197.677 122.656,196.618 123.127,195.369 124.715 M59.432 129.402 C 55.424 134.497,58.316 142.969,64.063 142.969 C 68.149 142.969,70.313 140.265,70.313 135.156 C 70.313 130.048,68.149 127.344,64.063 127.344 C 61.740 127.344,60.681 127.814,59.432 129.402 M144.547 157.235 C 139.199 159.993,138.945 177.178,144.216 179.580 C 150.673 182.522,153.125 179.452,153.125 168.424 C 153.125 157.704,150.436 154.197,144.547 157.235 M250.781 156.788 C 243.906 159.411,245.356 180.469,252.412 180.469 C 257.731 180.469,259.712 176.440,259.263 166.542 C 258.904 158.645,255.668 154.923,250.781 156.788 M197.187 161.270 C 190.283 164.281,192.729 184.375,200.000 184.375 C 201.522 184.375,203.124 183.666,204.332 182.457 C 208.261 178.528,206.688 160.938,202.408 160.938 C 202.013 160.938,201.222 160.775,200.650 160.575 C 200.078 160.376,198.519 160.689,197.187 161.270 M195.668 200.355 C 193.585 202.437,192.756 216.214,194.515 219.500 C 195.660 221.641,199.510 222.746,202.360 221.752 C 209.644 219.213,207.541 198.438,200.000 198.438 C 198.478 198.438,196.876 199.146,195.668 200.355 M78.388 203.497 C 74.905 205.937,75.502 212.191,79.386 213.961 C 82.350 215.312,84.262 215.028,86.364 212.926 C 91.788 207.501,84.676 199.093,78.388 203.497 M313.417 204.152 C 310.940 206.789,311.112 211.128,313.777 213.225 C 318.631 217.042,325.287 212.730,323.784 206.743 C 322.678 202.335,316.561 200.806,313.417 204.152 M102.058 214.119 C 97.640 217.595,100.168 225.000,105.773 225.000 C 111.820 225.000,114.419 218.258,109.878 214.352 C 107.227 212.072,104.755 211.998,102.058 214.119 M290.206 214.280 C 285.584 218.255,288.114 225.000,294.227 225.000 C 297.841 225.000,300.000 222.708,300.000 218.871 C 300.000 213.427,294.302 210.756,290.206 214.280 M126.172 231.931 C 121.441 234.872,111.881 245.607,111.317 248.611 C 109.735 257.047,122.600 271.094,131.910 271.094 L 136.242 271.094 143.902 263.434 L 151.563 255.774 151.563 251.442 C 151.563 240.220,134.245 226.914,126.172 231.931 M263.672 231.688 C 256.286 235.501,248.438 245.678,248.438 251.442 L 248.438 255.774 256.098 263.434 L 263.758 271.094 268.090 271.094 C 273.273 271.094,275.959 269.401,283.361 261.467 C 291.448 252.798,291.163 248.887,281.734 239.159 C 273.394 230.556,269.214 228.827,263.672 231.688 M134.962 254.471 L 131.273 258.160 127.743 254.696 L 124.213 251.231 127.907 247.481 L 131.601 243.731 135.126 247.256 L 138.651 250.781 134.962 254.471 M272.275 254.657 L 268.750 258.183 265.061 254.493 L 261.371 250.804 264.836 247.274 L 268.300 243.744 272.050 247.438 L 275.800 251.132 272.275 254.657 M184.088 275.432 C 165.187 279.188,148.220 289.689,135.793 305.325 C 130.314 312.218,130.098 313.967,134.074 319.276 C 165.075 360.666,223.251 364.567,258.699 327.634 C 269.687 316.185,270.587 313.450,265.518 306.906 C 245.818 281.474,214.534 269.382,184.088 275.432 M209.766 291.766 C 214.378 293.849,218.931 298.104,221.103 302.362 C 223.599 307.255,227.677 308.447,231.535 305.412 C 233.953 303.511,234.359 299.097,232.378 296.268 C 230.495 293.580,232.067 294.180,238.208 298.493 C 244.825 303.139,253.906 311.810,253.906 313.480 C 253.906 315.037,243.538 324.814,237.795 328.674 C 230.963 333.265,230.950 333.271,231.953 331.396 C 235.348 325.053,227.229 318.533,222.425 323.744 C 221.478 324.771,219.381 327.208,217.766 329.159 C 209.077 339.649,191.694 339.848,182.403 329.564 C 165.144 310.460,186.338 281.183,209.766 291.766 M166.404 298.834 C 162.549 307.827,162.711 319.718,166.812 328.738 C 167.844 331.009,168.263 332.617,167.743 332.313 C 159.865 327.701,146.094 315.733,146.094 313.500 C 146.094 311.069,166.421 293.504,167.725 294.808 C 167.881 294.964,167.286 296.775,166.404 298.834 M192.319 299.290 C 181.588 304.737,181.530 321.904,192.224 327.362 C 206.633 334.716,221.062 320.318,213.968 305.664 C 210.474 298.446,200.036 295.373,192.319 299.290 M202.188 311.094 C 204.839 313.746,201.721 318.163,198.438 316.406 C 195.680 314.930,196.874 310.156,200.000 310.156 C 200.688 310.156,201.672 310.578,202.188 311.094 "
            stroke="none" fill="#000000" fill-rule="evenodd"></path>
    </g>
</svg>
