<svg id="svg" xmlns="http://www.w3.org/2000/svg" xmlns:xlink="http://www.w3.org/1999/xlink" width="400" height="400"
    viewBox="0 0 400 400">
    <g id="svgg">
        <path id="path0"
            d="M215.952 3.101 C 215.057 3.462,213.363 4.934,212.187 6.371 C 211.010 7.809,209.536 9.614,208.911 10.382 C 207.927 11.593,206.999 11.710,201.978 11.255 C 189.653 10.138,187.885 18.011,194.973 42.454 C 198.263 53.797,198.267 53.128,194.856 61.064 C 187.755 77.580,194.022 85.918,205.223 74.857 C 207.943 72.170,209.375 71.201,209.375 72.045 C 209.375 72.753,207.790 74.632,205.853 76.219 C 195.494 84.707,193.538 94.715,202.092 95.466 L 204.799 95.703 201.488 100.625 L 198.177 105.546 199.505 109.760 C 201.165 115.028,202.550 115.557,207.765 112.915 C 212.832 110.347,213.114 109.670,203.145 124.002 C 193.306 138.148,193.780 136.760,197.075 141.796 C 200.342 146.790,201.611 146.968,205.880 143.033 C 210.172 139.077,210.801 139.016,208.575 142.773 C 198.086 160.480,197.973 160.891,202.280 165.556 C 205.597 169.149,206.252 169.153,210.013 165.610 C 212.587 163.185,212.633 163.558,210.957 173.324 C 209.173 183.724,209.102 183.453,214.566 187.082 C 219.925 190.640,222.667 190.610,223.701 186.982 L 224.406 184.512 228.023 187.103 C 238.559 194.651,247.160 192.623,240.109 184.254 C 228.583 170.572,227.696 157.051,236.453 128.516 C 241.372 112.486,240.203 102.376,231.137 82.539 C 214.455 46.038,212.884 41.660,213.425 33.168 C 213.804 27.207,216.200 23.652,221.597 21.039 C 233.267 15.390,246.430 24.101,251.194 40.625 L 251.757 42.578 249.635 40.625 C 248.469 39.551,246.286 37.002,244.784 34.961 L 242.054 31.250 235.117 31.250 C 224.053 31.250,224.109 31.888,236.441 46.239 C 243.838 54.846,247.438 60.415,248.956 65.593 C 251.022 72.641,256.588 76.269,268.555 78.368 L 273.438 79.224 273.467 81.995 C 273.483 83.519,271.665 117.812,269.426 158.203 L 265.356 231.641 263.305 234.027 C 261.195 236.481,259.874 239.322,259.006 243.273 C 258.249 246.715,245.565 245.091,227.851 239.284 C 213.560 234.599,211.912 236.422,211.935 256.893 C 211.959 277.044,213.541 278.682,228.363 273.899 C 238.267 270.702,249.697 268.342,259.180 267.534 L 265.625 266.986 265.625 269.773 C 265.625 272.506,265.552 272.570,261.914 273.070 C 250.870 274.588,246.487 277.040,230.078 290.881 C 218.655 300.516,217.065 300.994,197.495 300.674 C 185.154 300.472,182.610 300.621,182.002 301.583 C 179.480 305.571,181.459 306.105,199.616 306.345 C 218.943 306.599,221.406 305.986,230.307 298.696 C 245.238 286.467,248.397 284.083,252.361 282.053 C 254.734 280.838,258.602 279.605,260.955 279.313 L 265.234 278.781 266.797 282.164 C 269.704 288.459,270.475 288.612,301.563 289.063 C 329.739 289.471,330.469 289.560,330.469 292.594 C 330.469 297.153,324.942 298.422,305.039 298.433 C 297.765 298.438,296.094 299.046,296.094 301.691 C 296.094 304.255,298.526 304.598,313.355 304.131 C 329.803 303.613,330.469 303.818,330.469 309.387 C 330.469 314.272,328.985 314.828,315.646 314.935 C 296.900 315.086,294.141 315.525,294.141 318.359 L 294.141 320.703 306.585 320.919 C 320.340 321.158,321.094 321.408,321.094 325.728 C 321.094 331.351,320.864 331.431,303.443 331.858 C 285.732 332.292,284.159 332.615,284.518 335.743 L 284.766 337.891 293.664 338.281 L 302.562 338.672 300.279 341.112 C 295.951 345.737,281.718 346.382,250.000 343.389 C 221.716 340.720,212.668 340.431,198.666 341.753 C 176.393 343.855,173.414 344.671,174.582 348.350 C 175.230 350.391,175.152 350.391,192.578 348.359 C 208.116 346.546,220.393 346.644,241.406 348.747 C 247.637 349.370,257.217 350.125,262.695 350.425 L 272.656 350.969 272.656 356.036 C 272.656 360.511,272.428 361.283,270.703 362.640 C 256.908 373.491,266.001 397.144,283.984 397.190 C 302.219 397.235,311.004 375.386,297.755 362.940 C 294.203 359.603,293.999 350.459,297.461 349.764 C 301.240 349.004,304.933 345.859,307.003 341.636 L 308.984 337.592 314.063 337.545 C 323.490 337.457,327.778 333.261,327.081 324.805 C 326.786 321.225,326.941 320.312,327.847 320.313 C 334.607 320.313,339.018 310.122,335.277 303.147 C 333.868 300.520,333.871 300.401,335.375 297.851 C 337.378 294.457,336.884 288.999,334.328 286.278 C 331.666 283.445,328.194 282.822,315.039 282.817 L 303.125 282.813 303.125 274.885 L 303.125 266.957 309.629 267.457 C 320.048 268.258,329.353 270.104,340.186 273.518 C 356.791 278.752,358.092 277.605,358.248 257.600 C 358.412 236.457,356.797 234.584,342.462 239.284 C 333.634 242.177,325.250 244.121,317.832 244.993 L 313.483 245.504 312.512 241.456 C 311.978 239.230,310.640 236.337,309.538 235.028 L 307.535 232.648 305.492 156.363 C 304.369 114.406,303.487 79.997,303.533 79.897 C 303.579 79.798,306.231 79.214,309.426 78.599 C 322.674 76.050,327.145 73.139,330.509 64.873 C 333.261 58.111,337.319 52.247,346.060 42.404 C 354.719 32.653,354.609 31.723,344.762 31.416 L 337.572 31.192 333.622 36.219 C 329.980 40.852,328.387 42.188,326.499 42.188 C 324.145 42.187,329.027 31.216,333.577 26.281 C 341.569 17.610,353.121 16.939,360.227 24.733 C 366.713 31.848,364.898 41.320,351.552 69.988 C 336.323 102.699,334.976 109.533,340.246 127.344 C 345.348 144.584,346.123 147.921,346.603 154.688 C 347.333 164.986,344.470 173.919,337.414 183.365 C 330.757 192.277,337.933 195.020,348.285 187.520 C 352.039 184.801,353.125 184.586,353.125 186.563 C 353.125 190.576,356.840 190.776,362.359 187.059 C 367.690 183.469,367.673 183.537,365.871 172.627 L 364.339 163.349 367.328 166.050 C 371.057 169.418,371.452 169.409,374.693 165.870 C 379.040 161.124,378.674 159.845,367.689 141.406 C 366.063 138.677,366.068 138.679,370.321 142.383 C 375.896 147.237,376.315 147.212,379.942 141.811 C 382.818 137.528,382.626 136.382,377.910 129.682 C 375.643 126.462,371.760 120.916,369.281 117.358 L 364.773 110.887 367.738 112.152 C 374.177 114.899,374.165 114.898,375.739 113.324 C 378.944 110.118,378.686 105.164,375.043 99.971 L 371.775 95.312 374.529 95.313 C 382.900 95.313,382.411 87.859,373.439 78.690 C 370.430 75.615,367.982 72.560,367.999 71.901 C 368.017 71.190,369.367 72.181,371.319 74.337 C 381.934 86.059,389.119 78.251,382.545 62.137 C 379.026 53.510,379.022 52.643,382.459 40.584 C 388.850 18.164,386.803 10.251,374.881 11.291 L 368.894 11.814 366.046 8.055 C 361.608 2.199,357.330 1.131,348.023 3.555 C 336.095 6.662,328.192 15.634,322.097 32.993 C 319.306 40.940,317.756 43.016,316.690 40.236 C 316.443 39.593,317.395 37.268,318.806 35.070 C 324.220 26.632,322.323 19.412,314.111 17.201 C 305.688 14.933,299.957 21.469,301.222 31.902 C 302.038 38.635,301.006 36.492,296.532 22.163 C 290.527 2.927,289.292 2.907,282.868 21.931 L 278.534 34.766 278.099 28.906 C 277.435 19.989,273.199 15.553,266.526 16.790 C 257.006 18.554,254.630 25.973,260.612 35.257 C 263.082 39.091,263.171 39.452,261.975 40.773 C 259.390 43.629,258.336 42.541,255.202 33.780 C 249.974 19.168,244.639 11.470,236.390 6.636 C 230.335 3.087,220.283 1.349,215.952 3.101 M228.962 9.788 C 236.218 12.293,236.988 13.929,230.702 13.479 C 217.325 12.522,207.031 21.452,207.031 34.013 C 207.031 43.074,210.081 51.717,223.308 80.134 C 234.938 105.120,235.609 111.304,228.986 132.422 C 222.574 152.868,222.466 165.072,228.588 177.734 L 230.477 181.641 226.989 177.734 C 222.679 172.908,220.515 173.507,219.168 179.900 C 218.791 181.690,218.470 181.936,217.317 181.319 C 215.992 180.610,216.032 179.936,218.110 167.831 C 221.243 149.581,220.229 147.978,210.932 156.479 C 204.930 161.967,205.210 161.179,215.965 142.337 C 225.714 125.258,226.644 123.050,224.844 121.250 C 223.052 119.458,222.495 119.863,203.195 137.000 C 199.952 139.879,201.687 136.986,213.184 120.343 C 224.545 103.896,225.350 102.223,222.616 100.760 C 221.290 100.050,219.660 100.534,213.198 103.554 C 208.901 105.563,205.265 107.080,205.119 106.924 C 204.973 106.768,208.156 101.907,212.192 96.121 C 219.836 85.165,220.556 83.416,217.988 82.041 C 216.412 81.198,213.351 82.620,205.223 87.969 C 200.835 90.857,202.526 88.156,209.296 81.466 C 214.991 75.839,216.100 73.472,214.797 69.732 C 212.941 64.410,207.534 64.323,202.032 69.526 C 199.763 71.672,197.704 73.224,197.455 72.976 C 196.909 72.430,199.215 65.548,201.371 61.291 C 204.514 55.083,204.264 51.476,199.616 36.024 C 195.034 20.790,195.708 16.855,202.771 17.611 C 209.275 18.307,211.716 17.293,215.305 12.403 C 218.495 8.058,222.006 7.386,228.962 9.788 M362.500 13.281 C 367.188 18.332,369.421 19.012,375.550 17.254 C 381.085 15.666,381.386 21.915,376.599 39.052 C 372.666 53.132,372.667 54.460,376.615 63.702 C 380.826 73.557,380.471 75.103,375.232 69.727 C 370.484 64.854,366.984 64.195,363.636 67.543 C 359.944 71.235,360.833 74.112,368.022 81.744 C 375.642 89.834,375.532 90.271,367.159 85.186 C 359.862 80.753,359.955 80.781,358.214 82.523 C 356.540 84.196,356.656 84.432,364.932 96.220 C 368.842 101.789,371.882 106.504,371.687 106.698 C 371.493 106.893,367.895 105.456,363.692 103.505 C 356.040 99.954,353.723 99.658,352.782 102.112 C 352.245 103.511,353.394 105.361,366.847 124.756 C 371.671 131.711,375.429 137.592,375.197 137.824 C 374.850 138.171,369.265 133.386,358.997 123.942 C 356.130 121.305,354.142 120.271,352.874 120.758 C 350.017 121.854,350.684 124.119,357.272 135.706 C 373.717 164.626,372.938 162.766,365.903 156.319 C 360.158 151.055,360.285 151.115,358.171 152.661 C 356.694 153.741,356.705 153.987,358.814 166.825 C 360.428 176.652,360.742 180.154,360.079 180.952 C 358.847 182.437,358.074 181.718,357.477 178.534 C 357.049 176.253,355.233 174.219,353.626 174.219 C 353.415 174.219,351.800 175.713,350.038 177.539 L 346.833 180.859 349.179 175.781 C 354.588 164.073,354.212 152.596,347.711 130.956 C 341.096 108.938,341.947 104.290,359.235 67.969 C 376.164 32.403,372.259 13.672,347.915 13.672 L 340.752 13.672 343.085 12.194 C 351.394 6.933,356.893 7.241,362.500 13.281 M292.978 31.108 C 295.861 40.446,295.938 40.252,289.396 40.178 C 282.862 40.104,282.986 40.499,286.335 30.449 C 289.679 20.413,289.676 20.413,292.978 31.108 M270.313 23.420 C 271.166 23.959,271.598 26.180,271.901 31.588 C 272.546 43.062,277.583 46.706,291.725 45.929 C 303.454 45.285,307.494 41.670,307.249 32.037 C 307.029 23.415,310.487 19.862,314.851 24.226 C 316.655 26.030,315.984 28.505,312.168 34.121 C 302.842 47.846,327.095 54.516,337.569 41.106 C 339.453 38.693,341.474 36.719,342.060 36.719 C 342.646 36.719,341.281 38.737,339.027 41.203 C 333.893 46.821,329.325 52.975,327.592 56.609 C 326.859 58.146,326.064 59.293,325.825 59.157 C 309.081 49.621,270.194 48.850,255.702 57.767 L 253.200 59.306 250.661 54.868 C 248.461 51.023,243.411 44.472,238.025 38.477 C 237.157 37.510,236.839 36.719,237.318 36.719 C 237.797 36.719,239.704 38.662,241.556 41.037 C 247.127 48.183,255.282 50.439,262.952 46.956 C 270.080 43.718,270.856 39.976,266.022 32.143 C 261.737 25.202,264.439 19.710,270.313 23.420 M296.469 57.927 C 296.660 58.118,297.692 91.657,298.763 132.458 C 299.834 173.258,300.925 212.002,301.187 218.555 L 301.664 230.469 299.365 230.469 C 296.348 230.469,296.145 230.144,292.128 218.873 C 286.919 204.261,284.960 204.262,279.798 218.875 C 276.001 229.626,275.518 230.469,273.147 230.469 L 271.484 230.469 272.812 206.446 C 273.542 193.233,275.561 156.582,277.298 125.000 C 281.165 54.692,280.881 58.013,283.065 57.530 C 285.046 57.092,295.957 57.415,296.469 57.927 M274.605 65.820 C 273.920 74.647,274.685 74.023,267.054 71.981 C 255.898 68.995,253.140 66.129,258.444 63.031 C 261.170 61.439,270.220 58.783,273.325 58.664 L 275.166 58.594 274.605 65.820 M312.546 60.058 C 321.679 62.669,324.984 65.195,322.509 67.669 C 321.043 69.135,311.644 72.340,306.836 73.014 L 303.125 73.533 303.125 66.063 L 303.125 58.594 305.276 58.594 C 306.459 58.594,309.730 59.253,312.546 60.058 M288.014 70.893 C 287.440 71.823,286.811 88.534,286.346 115.234 C 286.128 127.695,285.719 150.229,285.435 165.310 C 285.030 186.827,285.129 192.860,285.894 193.332 C 288.726 195.083,288.911 192.931,289.790 148.047 C 291.229 74.549,291.226 70.783,289.721 70.483 C 289.009 70.342,288.241 70.526,288.014 70.893 M80.673 119.185 C 62.640 128.171,63.688 157.539,82.502 170.440 C 89.976 175.566,100.781 176.916,100.781 172.724 C 100.781 170.738,99.402 169.832,95.465 169.231 C 71.017 165.499,65.393 126.537,88.792 122.993 C 98.550 121.515,107.417 128.044,106.891 136.319 C 106.195 147.245,96.394 152.003,89.258 144.879 C 83.169 138.800,89.013 131.421,96.052 136.300 C 101.444 140.036,104.712 136.155,99.986 131.628 C 94.898 126.753,84.707 128.414,81.773 134.596 C 75.290 148.259,95.910 160.807,107.325 150.146 C 124.382 134.216,102.205 108.455,80.673 119.185 M123.438 165.256 C 112.007 168.422,100.573 177.951,95.132 188.846 L 92.313 194.490 89.971 190.340 C 72.999 160.267,28.952 170.985,29.775 204.988 L 29.924 211.147 26.355 213.737 C 3.698 230.179,14.873 280.366,41.868 283.409 C 45.205 283.785,45.312 283.882,45.312 286.512 C 45.312 300.427,58.317 316.794,71.253 319.162 C 74.027 319.670,74.125 319.794,73.597 322.151 C 67.236 350.573,88.268 375.421,117.492 374.007 C 141.353 372.853,154.709 361.018,153.751 341.879 L 153.395 334.766 156.563 332.402 C 169.185 322.983,173.230 302.244,165.137 288.434 C 164.040 286.564,163.262 284.939,163.408 284.824 C 163.553 284.709,165.581 283.594,167.915 282.346 C 195.549 267.573,197.496 227.832,171.237 214.526 C 167.147 212.453,167.130 212.430,167.704 209.542 C 173.422 180.762,150.446 157.776,123.438 165.256 M141.406 171.265 C 157.493 176.096,165.047 189.438,161.861 207.390 L 161.312 210.483 154.289 210.286 C 122.503 209.390,101.876 243.277,122.771 262.064 C 128.459 267.178,140.106 270.519,142.813 267.812 C 145.336 265.289,142.892 262.506,138.137 262.492 C 127.608 262.461,118.686 250.729,120.997 239.954 C 129.060 202.359,190.951 213.227,183.636 250.954 C 176.291 288.833,123.550 295.238,104.276 260.591 C 79.951 216.863,103.621 159.918,141.406 171.265 M127.425 175.662 C 125.271 177.129,127.110 178.663,131.574 179.124 C 137.365 179.722,143.395 182.611,147.410 186.711 C 152.820 192.235,155.504 189.356,150.307 183.604 C 145.111 177.853,131.264 173.047,127.425 175.662 M71.517 181.266 C 84.710 187.652,88.133 195.247,88.584 219.141 C 88.754 228.164,89.131 236.426,89.422 237.500 L 89.950 239.453 81.089 239.453 C 62.436 239.453,45.313 257.152,45.313 276.432 C 45.313 278.533,43.236 278.244,36.934 275.269 C 19.302 266.944,14.099 231.618,28.729 219.559 C 32.377 216.552,32.709 216.600,35.570 220.556 C 49.104 239.269,80.479 222.839,74.980 199.917 C 70.417 180.897,40.897 184.966,43.095 204.311 C 43.579 208.576,47.797 207.654,48.937 203.034 C 52.600 188.196,70.664 190.793,69.255 205.955 C 67.356 226.400,40.120 228.349,35.965 208.336 C 31.871 188.617,53.181 172.390,71.517 181.266 M287.740 224.805 C 289.511 229.744,289.532 229.688,285.854 229.688 C 283.429 229.688,282.748 229.421,283.064 228.597 C 283.294 227.997,283.915 226.064,284.443 224.300 C 285.671 220.201,286.114 220.269,287.740 224.805 M302.874 237.975 C 305.120 239.653,307.686 244.918,306.726 245.878 C 304.534 248.070,264.844 246.850,264.844 244.591 C 264.844 242.155,268.305 237.929,271.121 236.926 C 276.082 235.158,300.170 235.953,302.874 237.975 M226.675 245.260 C 240.995 250.222,256.318 252.372,278.906 252.588 C 311.487 252.901,328.878 250.850,344.747 244.826 C 352.497 241.884,352.257 241.507,352.257 256.641 C 352.257 271.924,352.819 271.227,343.112 267.975 C 312.735 257.798,258.734 257.781,227.138 267.940 C 222.943 269.289,219.164 270.178,218.740 269.916 C 217.879 269.384,217.642 244.337,218.490 243.490 C 219.259 242.720,219.488 242.770,226.675 245.260 M90.349 246.400 C 91.302 246.704,92.532 248.947,93.947 252.959 C 103.215 279.239,127.002 294.123,151.172 288.765 L 156.641 287.553 158.404 289.675 C 170.414 304.127,159.926 330.541,142.133 330.653 C 131.764 330.718,131.640 336.126,141.998 336.556 L 147.484 336.784 148.017 341.046 C 151.547 369.298,103.151 379.127,85.648 353.714 C 71.737 333.515,79.135 308.907,102.751 296.821 C 109.744 293.242,111.282 290.920,107.870 289.093 C 103.153 286.569,83.062 301.260,78.202 310.787 C 76.286 314.542,75.574 314.579,68.223 311.312 C 34.095 296.144,54.912 235.073,90.349 246.400 M296.875 274.609 L 296.875 282.813 287.084 282.813 C 280.302 282.813,276.461 282.465,274.584 281.680 L 271.875 280.548 271.875 273.477 L 271.875 266.406 284.375 266.406 L 296.875 266.406 296.875 274.609 M85.755 329.063 C 85.224 330.657,86.655 338.052,88.409 342.773 C 91.636 351.460,107.520 363.641,110.125 359.426 C 111.219 357.656,110.335 356.680,106.358 355.268 C 98.588 352.508,91.397 343.272,90.210 334.529 C 89.936 332.511,89.542 330.244,89.335 329.492 C 88.908 327.948,86.234 327.628,85.755 329.063 M186.133 334.111 C 185.596 334.328,185.156 335.179,185.156 336.003 C 185.156 337.772,201.977 338.335,203.689 336.624 C 206.200 334.112,191.385 331.992,186.133 334.111 M289.063 354.230 L 289.063 357.679 283.983 357.941 L 278.903 358.203 278.905 354.930 C 278.906 351.723,278.966 351.651,281.836 351.350 C 289.407 350.558,289.063 350.421,289.063 354.230 M292.841 366.944 C 300.389 372.701,299.004 385.599,290.389 389.769 C 284.511 392.615,278.337 391.571,274.073 387.010 C 262.500 374.632,279.329 356.638,292.841 366.944 M289.820 379.102 C 288.824 381.981,288.226 382.563,285.311 383.485 C 281.059 384.831,281.025 386.991,285.250 387.345 C 289.946 387.739,295.787 380.963,294.236 376.921 C 293.327 374.550,290.995 375.701,289.820 379.102 "
            stroke="none" fill="#000000" fill-rule="evenodd"></path>
    </g>
</svg>