<svg id="svg" xmlns="http://www.w3.org/2000/svg" xmlns:xlink="http://www.w3.org/1999/xlink" width="400" height="400"
    viewBox="0 0 400 400">
    <g id="svgg">
        <path id="path0"
            d="M101.719 27.500 C 99.849 29.369,100.418 371.626,102.292 372.629 C 104.397 373.755,295.603 373.755,297.708 372.629 C 299.582 371.626,300.151 29.369,298.281 27.500 C 296.920 26.138,103.080 26.138,101.719 27.500 M292.969 200.000 L 292.969 366.406 200.000 366.406 L 107.031 366.406 107.031 200.000 L 107.031 33.594 200.000 33.594 L 292.969 33.594 292.969 200.000 M187.014 38.623 C 178.692 42.245,181.143 53.906,190.226 53.906 C 194.408 53.906,196.269 53.099,199.805 49.753 C 202.081 47.598,202.344 47.513,202.344 48.929 C 202.344 53.985,211.479 55.829,215.685 51.623 C 224.586 42.722,210.764 33.126,201.186 41.557 C 198.351 44.053,197.651 44.382,197.631 43.230 C 197.556 38.896,191.963 36.469,187.014 38.623 M191.682 44.521 C 191.292 46.472,191.514 46.965,193.040 47.530 L 194.864 48.204 193.064 49.168 C 190.219 50.691,186.719 48.929,186.719 45.974 C 186.719 44.346,187.218 43.499,188.477 42.993 C 191.603 41.736,192.183 42.013,191.682 44.521 M211.277 42.949 C 213.949 43.965,213.999 47.150,211.370 48.872 C 209.943 49.807,209.102 49.917,208.050 49.305 C 207.275 48.854,207.080 48.474,207.617 48.461 C 209.523 48.415,208.756 44.534,206.836 44.506 C 205.122 44.482,205.116 44.453,206.595 43.335 C 208.388 41.978,208.663 41.955,211.277 42.949 M118.255 44.912 C 116.896 48.454,117.031 48.470,146.268 48.252 L 173.828 48.047 173.828 46.094 L 173.828 44.141 146.268 43.935 C 122.261 43.756,118.650 43.882,118.255 44.912 M226.068 44.912 C 224.708 48.454,224.844 48.470,254.081 48.252 L 281.641 48.047 281.641 46.094 L 281.641 44.141 254.081 43.935 C 230.073 43.756,226.463 43.882,226.068 44.912 M116.005 54.828 C 115.789 55.395,115.703 82.402,115.814 114.844 L 116.016 173.828 117.969 173.828 L 119.922 173.828 119.922 114.063 L 119.922 54.297 118.161 54.047 C 117.192 53.909,116.222 54.261,116.005 54.828 M280.068 54.828 C 279.851 55.395,279.765 82.402,279.876 114.844 L 280.078 173.828 282.031 173.828 L 283.984 173.828 283.984 114.063 L 283.984 54.297 282.223 54.047 C 281.254 53.909,280.285 54.261,280.068 54.828 M197.069 77.539 C 196.641 78.076,192.508 85.992,187.885 95.131 L 179.480 111.746 179.857 119.571 C 180.064 123.875,179.935 127.581,179.570 127.807 C 179.205 128.033,178.906 130.620,178.906 133.558 L 178.906 138.898 175.812 139.193 L 172.718 139.489 172.492 134.084 C 172.193 126.938,171.602 126.577,163.130 128.358 C 153.875 130.304,154.300 129.028,156.614 147.904 C 157.703 156.788,158.594 164.402,158.594 164.823 C 158.594 167.179,166.584 169.612,177.909 170.704 C 183.497 171.243,183.556 171.272,183.921 173.710 C 184.238 175.822,187.562 248.714,187.516 252.539 C 187.497 254.122,183.083 254.303,172.266 253.164 C 163.261 252.216,163.281 252.195,163.281 262.500 C 163.281 272.968,163.206 272.896,173.124 271.853 C 176.949 271.451,182.225 271.115,184.849 271.108 L 189.621 271.094 190.166 284.961 C 190.467 292.588,190.878 300.059,191.082 301.563 C 191.430 304.138,191.212 304.457,187.327 307.050 C 180.512 311.598,182.104 314.335,195.795 321.607 L 199.793 323.731 207.709 318.776 C 217.574 312.601,218.050 311.089,211.427 306.952 C 207.477 304.484,207.245 304.166,207.520 301.578 C 207.681 300.066,208.167 292.526,208.600 284.824 C 209.034 277.122,209.473 270.757,209.577 270.679 C 209.681 270.602,214.863 270.997,221.094 271.556 C 227.324 272.114,232.660 272.591,232.952 272.614 C 235.080 272.784,235.938 269.877,235.938 262.500 C 235.938 253.839,235.054 251.943,231.349 252.658 C 230.220 252.875,225.476 253.290,220.807 253.579 L 212.317 254.105 212.823 246.389 C 213.101 242.144,213.838 227.246,214.462 213.281 C 216.104 176.481,216.494 170.998,217.488 170.725 C 217.967 170.594,221.348 170.040,225.000 169.495 C 241.719 166.998,240.796 168.073,243.344 148.133 C 245.782 129.044,246.200 130.320,236.870 128.358 C 228.398 126.577,227.807 126.938,227.508 134.084 L 227.282 139.489 224.188 139.193 L 221.094 138.898 221.094 134.076 C 221.094 130.895,220.663 128.639,219.828 127.446 C 218.816 126.001,218.636 124.282,218.932 118.874 L 219.303 112.109 211.131 95.703 C 201.379 76.123,199.812 74.099,197.069 77.539 M212.125 119.247 L 211.593 124.923 207.554 125.157 L 203.516 125.391 203.289 131.836 C 203.164 135.381,202.724 138.281,202.312 138.281 C 201.849 138.281,201.578 129.388,201.603 115.039 L 201.644 91.797 207.150 102.684 L 212.656 113.572 212.125 119.247 M196.863 109.961 C 196.856 119.989,196.571 126.510,196.167 125.873 C 195.669 125.087,194.297 124.891,191.130 125.153 L 186.778 125.514 186.553 119.289 L 186.328 113.065 191.406 103.021 C 194.199 97.497,196.572 92.975,196.680 92.973 C 196.787 92.971,196.870 100.615,196.863 109.961 M189.844 136.545 C 189.844 143.843,190.719 144.531,200.000 144.531 C 209.281 144.531,210.156 143.843,210.156 136.545 C 210.156 132.251,210.251 132.031,212.109 132.031 C 214.002 132.031,214.063 132.196,214.063 137.379 C 214.063 144.634,214.761 145.195,224.604 145.842 C 233.730 146.441,234.375 145.991,234.375 139.022 C 234.375 134.694,234.421 134.600,236.369 134.973 C 238.040 135.292,238.298 135.684,237.963 137.403 C 237.743 138.531,237.171 142.969,236.690 147.266 C 236.210 151.563,235.700 155.464,235.557 155.936 C 235.375 156.536,233.690 156.427,229.953 155.573 C 222.208 153.802,177.792 153.802,170.047 155.573 C 166.312 156.426,164.628 156.536,164.452 155.936 C 164.313 155.464,163.792 151.211,163.293 146.484 C 162.794 141.758,162.213 137.275,162.000 136.523 C 161.704 135.476,162.083 135.156,163.619 135.156 C 165.539 135.156,165.626 135.349,165.637 139.648 C 165.656 146.806,166.872 147.310,179.291 145.312 C 185.085 144.379,185.938 143.308,185.938 136.960 C 185.938 132.223,186.014 132.031,187.891 132.031 C 189.749 132.031,189.844 132.251,189.844 136.545 M197.656 207.422 C 197.656 253.465,197.618 254.688,196.160 254.688 C 194.266 254.688,194.251 254.505,192.200 206.250 C 191.333 185.840,190.453 167.119,190.246 164.648 L 189.868 160.156 193.762 160.156 L 197.656 160.156 197.656 207.422 M210.145 162.695 C 210.139 164.092,209.815 171.035,209.425 178.125 C 209.035 185.215,208.087 205.342,207.319 222.852 L 205.922 254.688 204.133 254.688 L 202.344 254.688 202.344 207.422 L 202.344 160.156 206.250 160.156 C 210.138 160.156,210.156 160.168,210.145 162.695 M183.594 162.500 C 183.594 164.230,179.137 164.561,171.875 163.370 L 168.359 162.793 174.219 161.970 C 183.222 160.705,183.594 160.726,183.594 162.500 M225.391 161.777 C 227.672 161.851,227.682 161.869,225.781 162.441 C 220.243 164.107,216.547 164.085,216.990 162.390 C 217.351 161.009,217.829 160.838,220.230 161.236 C 221.779 161.492,224.102 161.736,225.391 161.777 M113.373 183.305 C 108.568 186.671,108.558 193.276,113.349 198.720 L 116.373 202.155 114.042 202.621 C 106.142 204.201,109.664 217.969,117.969 217.969 C 126.489 217.969,129.033 207.712,122.238 200.753 L 119.426 197.873 121.788 197.400 C 126.919 196.374,127.884 188.701,123.440 184.257 C 120.838 181.655,116.336 181.230,113.373 183.305 M277.115 183.606 C 271.495 188.027,274.074 199.678,280.156 197.344 C 280.902 197.058,279.912 198.534,277.956 200.625 C 270.948 208.117,273.263 217.969,282.031 217.969 C 290.223 217.969,293.428 206.676,286.254 203.088 L 283.837 201.880 286.740 198.609 C 294.645 189.701,286.167 176.486,277.115 183.606 M120.968 188.709 C 122.344 191.728,122.106 192.127,119.207 191.656 C 116.854 191.274,116.503 191.442,116.231 193.073 L 115.924 194.922 114.882 192.805 C 113.984 190.981,114.020 190.415,115.142 188.704 C 116.869 186.068,119.766 186.070,120.968 188.709 M284.158 187.695 C 285.508 189.440,285.747 190.978,284.977 192.969 L 284.222 194.922 283.507 193.068 C 282.908 191.516,282.413 191.291,280.459 191.682 C 277.903 192.193,277.668 191.702,279.032 188.709 C 280.012 186.557,282.844 185.997,284.158 187.695 M121.875 208.960 C 121.875 210.594,119.429 213.281,117.942 213.281 C 115.785 213.281,113.703 209.862,114.758 208.050 C 115.209 207.275,115.588 207.080,115.601 207.617 C 115.648 209.523,119.529 208.756,119.556 206.836 C 119.580 205.122,119.610 205.116,120.728 206.595 C 121.359 207.429,121.875 208.493,121.875 208.960 M282.476 208.594 C 283.521 208.594,284.386 208.154,284.399 207.617 C 284.412 207.080,284.791 207.275,285.242 208.050 C 286.303 209.872,284.210 213.281,282.031 213.281 C 279.473 213.281,277.685 209.755,278.945 207.195 C 279.959 205.134,279.994 205.124,280.282 206.836 C 280.494 208.096,281.115 208.594,282.476 208.594 M116.005 226.703 C 115.789 227.270,115.703 254.277,115.814 286.719 L 116.016 345.703 117.969 345.703 L 119.922 345.703 119.922 285.938 L 119.922 226.172 118.161 225.922 C 117.192 225.784,116.222 226.136,116.005 226.703 M280.068 226.703 C 279.851 227.270,279.765 254.277,279.876 286.719 L 280.078 345.703 282.031 345.703 L 283.984 345.703 283.984 285.938 L 283.984 226.172 282.223 225.922 C 281.254 225.784,280.285 226.136,280.068 226.703 M187.891 260.868 C 198.538 261.461,220.045 260.831,226.367 259.742 C 228.883 259.308,228.906 259.333,228.906 262.440 C 228.906 264.600,228.602 265.476,227.930 265.253 C 222.120 263.335,180.090 263.348,171.289 265.271 C 169.691 265.620,169.531 265.366,169.531 262.467 L 169.531 259.279 172.852 259.747 C 174.678 260.005,181.445 260.509,187.891 260.868 M202.344 273.438 L 202.344 276.563 199.219 276.563 L 196.094 276.563 196.094 273.438 L 196.094 270.313 199.219 270.313 L 202.344 270.313 202.344 273.438 M201.563 285.156 C 201.563 286.372,201.042 286.719,199.219 286.719 C 197.396 286.719,196.875 286.372,196.875 285.156 C 196.875 283.941,197.396 283.594,199.219 283.594 C 201.042 283.594,201.563 283.941,201.563 285.156 M201.508 295.898 C 201.366 301.454,197.656 302.688,197.656 297.179 C 197.656 294.042,197.823 293.750,199.609 293.750 C 201.233 293.750,201.553 294.113,201.508 295.898 M202.433 309.519 C 206.158 311.613,206.176 311.928,202.690 313.985 C 199.266 316.005,199.481 316.012,195.784 313.774 L 192.739 311.931 195.770 309.872 C 199.400 307.405,198.734 307.440,202.433 309.519 M184.315 348.377 C 175.422 357.270,189.518 367.093,198.840 358.499 L 202.145 355.453 202.609 357.771 C 204.210 365.778,217.969 362.317,217.969 353.906 C 217.969 345.254,207.704 343.140,200.195 350.247 C 198.399 351.947,197.656 352.293,197.656 351.430 C 197.656 346.069,188.678 344.014,184.315 348.377 M192.188 350.781 C 192.969 351.286,193.034 351.543,192.383 351.551 C 190.533 351.573,191.254 355.337,193.164 355.627 L 194.922 355.894 193.093 356.919 C 188.682 359.391,184.364 354.082,188.455 351.216 C 190.480 349.798,190.638 349.780,192.188 350.781 M211.545 351.216 C 214.473 353.267,212.602 357.813,208.830 357.813 C 208.155 357.813,208.000 357.071,208.329 355.424 C 208.734 353.398,208.538 352.964,207.042 352.573 L 205.276 352.111 207.130 351.083 C 209.494 349.773,209.483 349.772,211.545 351.216 M118.255 352.724 C 116.896 356.266,117.031 356.283,146.268 356.065 L 173.828 355.859 173.828 353.906 L 173.828 351.953 146.268 351.748 C 122.261 351.569,118.650 351.695,118.255 352.724 M226.068 352.724 C 224.708 356.266,224.844 356.283,254.081 356.065 L 281.641 355.859 281.641 353.906 L 281.641 351.953 254.081 351.748 C 230.073 351.569,226.463 351.695,226.068 352.724 "
            stroke="none" fill="#000000" fill-rule="evenodd"></path>
    </g>
</svg>