<svg id="svg" xmlns="http://www.w3.org/2000/svg" xmlns:xlink="http://www.w3.org/1999/xlink" width="400" height="400"
    viewBox="0 0 400 400">
    <g id="svgg">
        <path id="path0"
            d="M101.719 27.500 C 99.849 29.369,100.418 371.626,102.292 372.629 C 104.397 373.755,295.603 373.755,297.708 372.629 C 299.582 371.626,300.151 29.369,298.281 27.500 C 296.920 26.138,103.080 26.138,101.719 27.500 M292.969 200.000 L 292.969 366.406 200.000 366.406 L 107.031 366.406 107.031 200.000 L 107.031 33.594 200.000 33.594 L 292.969 33.594 292.969 200.000 M187.014 38.623 C 178.692 42.245,181.143 53.906,190.226 53.906 C 194.408 53.906,196.269 53.099,199.805 49.753 C 202.081 47.598,202.344 47.513,202.344 48.929 C 202.344 53.985,211.479 55.829,215.685 51.623 C 224.586 42.722,210.764 33.126,201.186 41.557 C 198.351 44.053,197.651 44.382,197.631 43.230 C 197.556 38.896,191.963 36.469,187.014 38.623 M191.682 44.521 C 191.292 46.472,191.514 46.965,193.040 47.530 L 194.864 48.204 193.064 49.168 C 190.219 50.691,186.719 48.929,186.719 45.974 C 186.719 44.346,187.218 43.499,188.477 42.993 C 191.603 41.736,192.183 42.013,191.682 44.521 M211.291 43.094 C 213.895 44.280,213.935 47.192,211.370 48.872 C 209.943 49.807,209.102 49.917,208.050 49.305 C 207.275 48.854,207.080 48.474,207.617 48.461 C 209.523 48.415,208.756 44.534,206.836 44.506 C 205.122 44.482,205.116 44.453,206.595 43.335 C 208.423 41.952,208.747 41.935,211.291 43.094 M118.255 44.912 C 116.896 48.454,117.031 48.470,146.268 48.252 L 173.828 48.047 173.828 46.094 L 173.828 44.141 146.268 43.935 C 122.261 43.756,118.650 43.882,118.255 44.912 M226.068 44.912 C 224.708 48.454,224.844 48.470,254.081 48.252 L 281.641 48.047 281.641 46.094 L 281.641 44.141 254.081 43.935 C 230.073 43.756,226.463 43.882,226.068 44.912 M116.005 54.828 C 115.789 55.395,115.703 82.402,115.814 114.844 L 116.016 173.828 117.969 173.828 L 119.922 173.828 119.922 114.063 L 119.922 54.297 118.161 54.047 C 117.192 53.909,116.222 54.261,116.005 54.828 M280.068 54.828 C 279.851 55.395,279.765 82.402,279.876 114.844 L 280.078 173.828 282.031 173.828 L 283.984 173.828 283.984 114.063 L 283.984 54.297 282.223 54.047 C 281.254 53.909,280.285 54.261,280.068 54.828 M193.359 81.428 C 188.469 83.171,184.540 86.616,182.360 91.073 L 180.227 95.433 180.734 109.240 C 181.199 121.903,184.457 178.778,185.622 194.577 L 186.116 201.264 183.653 203.726 C 180.069 207.311,176.498 206.188,178.663 202.158 C 184.529 191.239,172.045 168.987,164.574 177.044 C 158.656 183.426,159.145 196.245,165.561 202.930 L 167.248 204.687 163.898 204.695 C 152.349 204.721,139.963 221.737,148.803 225.430 C 159.250 229.795,174.858 221.007,174.983 210.690 C 175.000 209.266,175.083 209.264,179.492 210.557 C 180.244 210.778,181.387 212.096,182.031 213.487 C 182.676 214.878,184.287 216.719,185.613 217.578 L 188.023 219.141 189.769 240.625 C 195.629 312.710,196.717 319.871,201.734 319.387 C 206.302 318.946,207.613 312.819,211.274 274.801 C 213.975 246.760,220.197 168.973,220.345 161.405 C 220.368 160.221,221.439 159.268,224.200 157.973 C 228.877 155.781,232.375 150.907,233.129 145.530 C 233.805 140.706,236.142 138.015,241.040 136.422 C 251.558 133.002,257.576 120.924,253.555 111.303 C 252.146 107.929,249.218 107.686,243.359 110.456 C 235.367 114.234,231.534 121.048,232.300 130.115 C 232.874 136.899,232.551 137.337,229.170 134.369 C 227.720 133.095,225.649 131.832,224.567 131.560 L 222.601 131.067 222.715 112.981 C 222.839 93.385,222.591 91.875,218.442 86.954 C 213.743 81.382,201.225 78.624,193.359 81.428 M210.829 89.638 C 216.445 94.122,216.570 94.786,215.978 116.919 C 215.396 138.682,215.401 138.705,220.469 137.736 C 223.117 137.230,226.563 140.412,226.563 143.363 C 226.563 147.890,221.949 153.125,217.959 153.125 C 214.305 153.125,214.170 153.859,211.706 187.186 C 208.020 237.046,203.340 291.220,202.096 298.438 C 201.858 299.818,199.247 272.468,196.466 239.453 C 194.324 214.018,194.019 212.500,191.060 212.500 C 187.022 212.500,186.940 208.581,190.947 207.057 L 193.190 206.205 192.687 199.391 C 188.513 142.837,186.709 97.382,188.503 94.007 C 192.343 86.784,204.321 84.440,210.829 89.638 M247.656 118.699 C 247.656 123.134,243.126 129.688,240.060 129.688 C 237.380 129.688,239.471 122.018,243.067 118.658 C 246.190 115.741,247.656 115.754,247.656 118.699 M113.373 183.305 C 108.568 186.671,108.558 193.276,113.349 198.720 L 116.373 202.155 114.042 202.621 C 106.142 204.201,109.664 217.969,117.969 217.969 C 126.489 217.969,129.033 207.712,122.238 200.753 L 119.426 197.873 121.788 197.400 C 126.919 196.374,127.884 188.701,123.440 184.257 C 120.838 181.655,116.336 181.230,113.373 183.305 M277.115 183.606 C 271.495 188.027,274.074 199.678,280.156 197.344 C 280.902 197.058,279.912 198.534,277.956 200.625 C 269.256 209.926,277.307 223.977,286.977 216.371 C 292.056 212.375,290.352 202.344,284.594 202.344 C 283.895 202.344,284.645 200.998,286.554 198.829 C 294.598 189.692,286.330 176.358,277.115 183.606 M172.164 187.786 C 173.545 190.696,173.845 196.584,172.704 198.387 C 171.111 200.905,167.181 194.974,167.198 190.078 C 167.223 183.130,169.464 182.096,172.164 187.786 M120.968 188.709 C 122.344 191.728,122.106 192.127,119.207 191.656 C 116.849 191.274,116.506 191.438,116.260 193.073 L 115.981 194.922 114.956 193.093 C 114.141 191.639,114.124 190.799,114.873 188.992 C 116.134 185.947,119.636 185.784,120.968 188.709 M284.158 187.695 C 285.508 189.440,285.747 190.978,284.977 192.969 L 284.222 194.922 283.507 193.068 C 282.908 191.516,282.413 191.291,280.459 191.682 C 277.903 192.193,277.668 191.702,279.032 188.709 C 280.012 186.557,282.844 185.997,284.158 187.695 M121.875 208.960 C 121.875 212.741,117.191 214.423,115.185 211.362 C 113.568 208.895,114.177 207.985,117.153 208.422 C 119.226 208.726,119.534 208.534,119.556 206.925 C 119.580 205.133,119.615 205.123,120.728 206.595 C 121.359 207.429,121.875 208.493,121.875 208.960 M282.476 208.594 C 283.521 208.594,284.386 208.154,284.399 207.617 C 284.412 207.080,284.791 207.275,285.242 208.050 C 286.303 209.872,284.210 213.281,282.031 213.281 C 279.473 213.281,277.685 209.755,278.945 207.195 C 279.959 205.134,279.994 205.124,280.282 206.836 C 280.494 208.096,281.115 208.594,282.476 208.594 M166.891 213.086 C 164.680 217.337,159.898 220.313,155.279 220.313 C 151.775 220.313,156.823 213.062,161.212 211.791 C 166.466 210.269,168.156 210.655,166.891 213.086 M116.005 226.703 C 115.789 227.270,115.703 254.277,115.814 286.719 L 116.016 345.703 117.969 345.703 L 119.922 345.703 119.922 285.938 L 119.922 226.172 118.161 225.922 C 117.192 225.784,116.222 226.136,116.005 226.703 M280.068 226.703 C 279.851 227.270,279.765 254.277,279.876 286.719 L 280.078 345.703 282.031 345.703 L 283.984 345.703 283.984 285.938 L 283.984 226.172 282.223 225.922 C 281.254 225.784,280.285 226.136,280.068 226.703 M184.315 348.377 C 175.422 357.270,189.518 367.093,198.840 358.499 L 202.145 355.453 202.609 357.771 C 204.210 365.778,217.969 362.317,217.969 353.906 C 217.969 345.254,207.704 343.140,200.195 350.247 C 198.399 351.947,197.656 352.293,197.656 351.430 C 197.656 346.069,188.678 344.014,184.315 348.377 M192.188 350.781 C 192.969 351.286,193.034 351.543,192.383 351.551 C 190.533 351.573,191.254 355.337,193.164 355.627 L 194.922 355.894 193.093 356.919 C 188.682 359.391,184.364 354.082,188.455 351.216 C 190.480 349.798,190.638 349.780,192.188 350.781 M211.545 351.216 C 214.473 353.267,212.602 357.813,208.830 357.813 C 208.160 357.813,207.999 357.076,208.318 355.479 C 208.709 353.525,208.484 353.029,206.932 352.430 L 205.078 351.715 207.031 350.907 C 209.634 349.830,209.559 349.825,211.545 351.216 M118.255 352.724 C 116.896 356.266,117.031 356.283,146.268 356.065 L 173.828 355.859 173.828 353.906 L 173.828 351.953 146.268 351.748 C 122.261 351.569,118.650 351.695,118.255 352.724 M226.068 352.724 C 224.708 356.266,224.844 356.283,254.081 356.065 L 281.641 355.859 281.641 353.906 L 281.641 351.953 254.081 351.748 C 230.073 351.569,226.463 351.695,226.068 352.724 "
            stroke="none" fill="#000000" fill-rule="evenodd"></path>
    </g>
</svg>