<svg xmlns="http://www.w3.org/2000/svg" version="1.1" xmlns:xlink="http://www.w3.org/1999/xlink" width="512"
    height="512" x="0" y="0" viewBox="0 0 64 64" style="enable-background:new 0 0 512 512" xml:space="preserve"
    class="">
    <g>
        <g fill="#231f20">
            <path
                d="M59.864 32c0-15.863-12.5-28.769-27.864-28.769S4.136 16.137 4.136 32 16.636 60.769 32 60.769 59.864 47.863 59.864 32zM32 59.769C17.187 59.769 5.136 47.312 5.136 32S17.187 4.231 32 4.231 58.864 16.688 58.864 32 46.813 59.769 32 59.769z"
                fill="#231f20" opacity="1" data-original="#231f20" class=""></path>
            <path
                d="M29.745 9.722a.5.5 0 0 0 .5.5h.768a2.168 2.168 0 0 1-.935 1.8.5.5 0 0 0 .167.972.509.509 0 0 0 .167-.028 3.092 3.092 0 0 0 1.6-2.746h1a3.091 3.091 0 0 0 1.6 2.746.509.509 0 0 0 .167.028.5.5 0 0 0 .167-.972 2.167 2.167 0 0 1-.933-1.8h.766a.5.5 0 0 0 0-1h-.759a2.169 2.169 0 0 1 .933-1.8.5.5 0 1 0-.334-.943 3.089 3.089 0 0 0-1.6 2.746h-1a3.089 3.089 0 0 0-1.6-2.746.5.5 0 1 0-.334.943 2.17 2.17 0 0 1 .935 1.8h-.768a.5.5 0 0 0-.507.5zM40.839 10.692a.5.5 0 0 0 .048-.706.6.6 0 0 1-.071-.684.6.6 0 0 1 .814-.228.609.609 0 0 1 .266.313 1.514 1.514 0 0 1-.049.844l-.047.211c-.1.488-.213.973-.327 1.456-.122.513-.249 1.026-.375 1.539-.119.479-.238.959-.352 1.438a.506.506 0 0 0 0 .055.569.569 0 0 0 0 .1.5.5 0 0 0 .018.094.526.526 0 0 0 .033.086.41.41 0 0 0 .056.086.453.453 0 0 0 .03.046c.009.009.021.012.031.021a.534.534 0 0 0 .084.056.459.459 0 0 0 .09.042c.012 0 .021.012.034.016a.5.5 0 0 0 .291-.02c.017-.007.032-.018.048-.026a.517.517 0 0 0 .108-.071c.006-.006.015-.008.021-.014l1-1c.389-.389.777-.779 1.17-1.164q.531-.524 1.074-1.035l.15-.147a1.528 1.528 0 0 1 .7-.48.61.61 0 0 1 .406.067.592.592 0 0 1 .281.359.584.584 0 0 1-.055.452.6.6 0 0 1-.625.3.5.5 0 1 0-.169.985 1.6 1.6 0 0 0 1.812-2 1.582 1.582 0 0 0-.754-.961 1.6 1.6 0 0 0-1.086-.178 2.372 2.372 0 0 0-1.2.743l-.143.138c-.37.346-.733.7-1.093 1.052-.306.3-.609.605-.913.908.1-.416.206-.833.3-1.251q.175-.736.333-1.481l.043-.194a2.363 2.363 0 0 0 .013-1.414 1.6 1.6 0 1 0-2.7 1.605.5.5 0 0 0 .705.042zM46.383 20.42a2.387 2.387 0 1 0 4.428 1.78 2.429 2.429 0 0 0 .108-.369 4.961 4.961 0 0 0 .927.268c.662.139 1.045.24 1.23.676a.5.5 0 1 0 .92-.392 2.329 2.329 0 0 0-1.942-1.263c-.662-.14-1.045-.24-1.231-.677s.008-.779.365-1.352a2.323 2.323 0 0 0 .438-2.275.5.5 0 0 0-.92.393c.186.434-.008.779-.365 1.352a5.326 5.326 0 0 0-.418.764 2.406 2.406 0 0 0-.435-.23 2.384 2.384 0 0 0-3.1 1.322zm.927.373a1.389 1.389 0 0 1 1.287-.869 1.4 1.4 0 0 1 .518.1 1.388 1.388 0 1 1-1.8.769zM56.223 32.959c-.477-.192-.954-1.2-.928-2.543s.54-2.33 1.023-2.506a.5.5 0 1 0-.339-.939 2.712 2.712 0 0 0-1.434 1.853l-4.152-.079a2.678 2.678 0 0 0-1.369-1.907.5.5 0 0 0-.375.928c.477.192.955 1.2.928 2.543s-.54 2.331-1.023 2.5a.5.5 0 0 0 .17.971.537.537 0 0 0 .17-.029 2.791 2.791 0 0 0 1.468-1.976l4.087.078a2.754 2.754 0 0 0 1.4 2.03.513.513 0 0 0 .187.036.5.5 0 0 0 .188-.964zm-1.915-2.105-3.762-.072c.014-.149.028-.3.031-.455 0-.2 0-.39-.017-.579l3.774.072a6.373 6.373 0 0 0-.039.577c-.003.156.005.303.013.457zM54.063 38.107c-.014-.009-.022-.024-.036-.033s-.016 0-.024-.01a1.441 1.441 0 1 0-.979 2.634 1.531 1.531 0 0 0 .191.012 1.442 1.442 0 0 0 .468-.086A4.793 4.793 0 0 1 53.037 42a3.72 3.72 0 0 1-2.073 1.626.5.5 0 0 0 .1.99.457.457 0 0 0 .1-.01 4.65 4.65 0 0 0 2.706-2.043 5.288 5.288 0 0 0 .942-2.485 2.294 2.294 0 0 0-.463-1.707 1.51 1.51 0 0 0-.286-.264zm-.906 1.6a.446.446 0 0 1-.381-.5.44.44 0 0 1 .169-.293.453.453 0 0 1 .328-.088.439.439 0 0 1 .24.122.752.752 0 0 1 .062.064.44.44 0 0 1-.418.7zM49.814 40.913a1.442 1.442 0 0 0-1.279-.165 4.82 4.82 0 0 1 .646-1.371 3.717 3.717 0 0 1 2.073-1.626.5.5 0 0 0-.193-.98 4.652 4.652 0 0 0-2.707 2.043 5.3 5.3 0 0 0-.941 2.485 2.1 2.1 0 0 0 .777 2 1.436 1.436 0 0 0 .809.251 1.386 1.386 0 0 0 .272-.027 1.443 1.443 0 0 0 .543-2.612zm-.445 1.444a.439.439 0 0 1-.284.186.429.429 0 0 1-.332-.068.63.63 0 0 1-.122-.125.469.469 0 0 1-.065-.16.439.439 0 0 1 .069-.332.445.445 0 0 1 .365-.194.439.439 0 0 1 .249.076.446.446 0 0 1 .12.617zM44.767 48.835a1.86 1.86 0 0 0-.267-3.365 1.862 1.862 0 0 0-1.438 3.43c.011.008.017.02.029.028l2.419 1.581a1.412 1.412 0 0 1 .031 2.094 1.423 1.423 0 0 1-1.2.361c-.447-.075-.73-.449-1.053-.932a11.773 11.773 0 0 1-.91-1.667 35.32 35.32 0 0 1-.442-.994c-.157-.357-.312-.714-.477-1.067a3.017 3.017 0 0 0-1.6-1.712 1.9 1.9 0 0 0-1.866.27 1.86 1.86 0 0 0-.288 2.614.5.5 0 1 0 .779-.625.862.862 0 0 1 .133-1.209.916.916 0 0 1 .887-.116 2.12 2.12 0 0 1 1.047 1.2c.161.345.313.7.466 1.044s.3.679.452 1.015a12.676 12.676 0 0 0 .987 1.8 2.679 2.679 0 0 0 1.718 1.36 2.368 2.368 0 0 0 .393.032 2.409 2.409 0 0 0 1.543-4.267zm-.106-1.314a.867.867 0 1 1-.811-1.167.852.852 0 0 1 .3.053.865.865 0 0 1 .511 1.114zM35 54.177c-.1-3.335-.154-4.209-.885-4.245-.774-.045-.877.825-1.315 4.13-.111.834-.26 1.959-.4 2.7a15.662 15.662 0 0 1-.118-2.782c.163-1.431.225-2.836.247-3.53a.5.5 0 0 0-.464-.514.505.505 0 0 0-.533.443c-.076.687-.216 2.1-.255 3.535a9.294 9.294 0 0 1-.78 3.382c-.118-.165-.412-.833-.34-3.359a5.677 5.677 0 0 0-.039-3.747q.424-.443.969-.939a.5.5 0 1 0-.674-.74q-.342.312-.641.606c-.181-.493-.34-.846-.391-.957a.5.5 0 0 0-.908.418 12.813 12.813 0 0 1 .518 1.355c-2.369 2.646-1.906 4.014-1.543 4.522a1.387 1.387 0 0 0 1.132.576 1.419 1.419 0 0 0 .566-.129c.019 2.273.387 3.285 1.215 3.424a.856.856 0 0 0 .709-.2 1.9 1.9 0 0 0 .479-.724 1.745 1.745 0 0 0 .3.61.868.868 0 0 0 .63.322c.718.006.874-.829 1.311-4.136.05-.374.107-.806.168-1.235.018.434.03.87.041 1.248.1 3.335.154 4.209.886 4.245h.025a.5.5 0 0 0 .316-.889 24.173 24.173 0 0 1-.226-3.39zm-5.708-.747a.487.487 0 0 0-.076.1 1.064 1.064 0 0 1-.431.438.4.4 0 0 1-.527-.105c-.228-.317-.181-1.23 1.048-2.765a4.144 4.144 0 0 1-.015 2.332zM21.113 50.088a.475.475 0 0 0-.582-.078.549.549 0 0 0-.268.574 1.636 1.636 0 1 1-1.151-1.292.5.5 0 0 0 .514-.812l-2.16-2.426a.5.5 0 1 0-.746.664l1.389 1.562a2.637 2.637 0 0 0 .388 5.214c.053 0 .105.005.156.005a2.642 2.642 0 0 0 2.514-1.848l1.283 1.441a.5.5 0 0 0 .746-.664zM19.143 44.561a.5.5 0 0 0-.747.664l5.736 6.441a.5.5 0 0 0 .746-.666zM17.032 41.328c-.189-.674-.966-.549-3.9.027-.6.12-1.383.273-2 .372a16.929 16.929 0 0 1 1.97-.722 39.915 39.915 0 0 0 3.014-.789.5.5 0 0 0-.252-.967c-.594.13-1.807.41-3.021.784a9.461 9.461 0 0 1-2.947.331 6.99 6.99 0 0 1 2.623-1.146c.479-.13 2.892-.844 3.3-2.129a1.476 1.476 0 0 0 .035-.164.5.5 0 0 0 .422-.885l-1.118-.812a.5.5 0 0 0-.757.214l-.518 1.265a.472.472 0 0 0 .393.676 7.986 7.986 0 0 1-2.039.874c-2.558.783-3.546 1.457-3.407 2.326a.838.838 0 0 0 .4.577 1.544 1.544 0 0 0 .624.189 1.4 1.4 0 0 0-.328.355.821.821 0 0 0-.095.666c.192.665.966.542 3.9-.033l.421-.082-.4.148c-2.8 1.041-3.53 1.341-3.34 2.014a.5.5 0 0 0 .481.364.535.535 0 0 0 .136-.018.5.5 0 0 0 .326-.29 22.519 22.519 0 0 1 2.745-1.131c2.8-1.042 3.522-1.342 3.332-2.014zM9.18 32.712l1.2-.633 1.045 1.983a.5.5 0 0 0 .442.267.494.494 0 0 0 .234-.058.5.5 0 0 0 .209-.675l-1.046-1.983 1.319-.7a.5.5 0 1 0-.467-.885l-1.318.7L9.362 28l1.517.413a.5.5 0 0 0 .262-.965l-2.627-.715a.5.5 0 0 0-.139-.008c-.011 0-.021-.008-.032-.007h-.011a.494.494 0 0 0-.231.09.472.472 0 0 0-.048.041.5.5 0 0 0-.125.177c0 .01-.015.016-.019.027l-.837 2.491a.5.5 0 0 0 .315.633.494.494 0 0 0 .633-.315l.465-1.385 1.429 2.712-1.2.633a.5.5 0 0 0 .233.943.506.506 0 0 0 .233-.053zM11.442 23.2a2.177 2.177 0 0 0 .689.114 1.816 1.816 0 0 0 1.021-.3 1.672 1.672 0 0 0 .339-.31l.01.007a3.063 3.063 0 0 1 .473 1.858.928.928 0 0 1-.484.632.5.5 0 1 0 .5.865 1.937 1.937 0 0 0 .959-1.286 3.1 3.1 0 0 0-.172-1.654 2.346 2.346 0 0 0 1.218-.4 1.97 1.97 0 0 0 .742-2.661 1.969 1.969 0 0 0-2.745-.3 2.392 2.392 0 0 0-.356.3A2.976 2.976 0 0 0 12.775 19a.5.5 0 0 0-.613.789 2.089 2.089 0 0 1 .448.483c.478.706.469 1.582-.019 1.913a.938.938 0 0 1-.833.067 1.93 1.93 0 0 1-.95-.757 2.072 2.072 0 0 1-.327-.783.507.507 0 0 0-.582-.4.5.5 0 0 0-.4.582 3.093 3.093 0 0 0 .482 1.164 2.916 2.916 0 0 0 1.461 1.142zm2.58-1.923a1.343 1.343 0 0 1 .533-.683 1.367 1.367 0 0 1 .752-.244.705.705 0 0 1 .6.272c.239.353.022.935-.474 1.272a1.347 1.347 0 0 1-.833.242.847.847 0 0 1-.338-.105 4.438 4.438 0 0 0-.214-.334.676.676 0 0 0-.048-.051.828.828 0 0 1 .022-.368zM17.6 15.765a.5.5 0 0 0 .5-.5l.01-1.8 1.251.672a.5.5 0 0 0 .739-.437l.01-1.8 1.252.671a.5.5 0 0 0 .737-.436l.013-1.8 1.254.671a.5.5 0 0 0 .473-.881l-1.985-1.058a.5.5 0 0 0-.737.437l-.013 1.8-1.253-.672a.5.5 0 0 0-.737.437l-.01 1.8-1.251-.669a.5.5 0 0 0-.737.438l-.016 2.624a.5.5 0 0 0 .5.503z"
                fill="#231f20" opacity="1" data-original="#231f20" class=""></path>
            <path
                d="M22.675 11.1a.494.494 0 0 0-.245.425l-.014 1.8-1.253-.672a.5.5 0 0 0-.736.438l-.011 1.8-1.251-.672a.5.5 0 0 0-.736.437l-.016 2.628a.5.5 0 0 0 .5.5.5.5 0 0 0 .5-.5l.011-1.8 1.251.672a.5.5 0 0 0 .736-.437l.011-1.8 1.252.671a.5.5 0 0 0 .736-.437l.014-1.8 1.254.671a.5.5 0 0 0 .472-.881l-1.984-1.062a.5.5 0 0 0-.491.019zM32.467 16.278a15.106 15.106 0 1 0 15.106 15.106 15.124 15.124 0 0 0-15.106-15.106zm0 29.212a14.106 14.106 0 1 1 14.106-14.106A14.122 14.122 0 0 1 32.467 45.49z"
                fill="#231f20" opacity="1" data-original="#231f20" class=""></path>
            <path
                d="M32.368 23.817a7.754 7.754 0 1 0 7.754 7.754 7.764 7.764 0 0 0-7.754-7.754zm0 14.508a6.754 6.754 0 1 1 6.754-6.754 6.763 6.763 0 0 1-6.754 6.754z"
                fill="#231f20" opacity="1" data-original="#231f20" class=""></path>
            <circle cx="32.516" cy="43.012" r=".767" fill="#231f20" opacity="1" data-original="#231f20" class="">
            </circle>
            <circle cx="32.516" cy="19.364" r=".767" fill="#231f20" opacity="1" data-original="#231f20" class="">
            </circle>
            <path
                d="M44.37 31.394a.767.767 0 1 0-.767-.766.766.766 0 0 0 .767.766zM20.308 29.861a.767.767 0 1 0 .767.767.766.766 0 0 0-.767-.767zM52.487 53.875a29.859 29.859 0 0 1-9.711 6.1.5.5 0 0 0 .18.966.494.494 0 0 0 .18-.033 30.855 30.855 0 0 0 10.035-6.3.5.5 0 0 0-.684-.73zM4.683 19.649a29.859 29.859 0 0 1 6.59-9.3.5.5 0 0 0-.691-.723 30.859 30.859 0 0 0-6.81 9.608.5.5 0 0 0 .249.661.489.489 0 0 0 .207.045.5.5 0 0 0 .455-.291z"
                fill="#231f20" opacity="1" data-original="#231f20" class=""></path>
        </g>
    </g>
</svg>